<svg fill="none" xmlns="http://www.w3.org/2000/svg">
    <defs>
        <symbol id="measurement" viewBox="0 0 111 39" fill="none">
            <path d="M16.8573 18.201C17.8573 18.7783 17.8573 20.2217 16.8573 20.7991L3.25016 28.6552C2.25016 29.2325 1.00016 28.5108 1.00016 27.3561L1.00016 11.6439C1.00016 10.4892 2.25016 9.76756 3.25016 10.3449L16.8573 18.201Z" stroke="currentColor" stroke-width="2"/>
            <path d="M93.1533 20.5597C92.1533 19.9823 92.1533 18.5389 93.1533 17.9616L106.76 10.1055C107.76 9.52814 109.01 10.2498 109.01 11.4045V27.1167C109.01 28.2714 107.76 28.9931 106.76 28.4157L93.1533 20.5597Z" stroke="currentColor" stroke-width="2"/>
            <path d="M30.0001 1.5H80.0001C83.0377 1.5 85.5001 3.96243 85.5001 7V37.5H24.5001V7C24.5001 3.96243 26.9626 1.5 30.0001 1.5Z" stroke="currentColor" stroke-width="3"/>
            <path d="M34.3658 13C34.3658 13.5523 34.8136 14 35.3658 14C35.9181 14 36.3658 13.5523 36.3658 13H34.3658ZM34.3658 1.85715V13H36.3658V1.85715H34.3658Z" fill="currentColor"/>
            <path d="M47.3657 13C47.3657 13.5523 47.8134 14 48.3657 14C48.918 14 49.3657 13.5523 49.3657 13H47.3657ZM47.3657 1.85715V13H49.3657V1.85715H47.3657Z" fill="currentColor"/>
            <path d="M60.3658 13C60.3658 13.5523 60.8136 14 61.3658 14C61.9181 14 62.3658 13.5523 62.3658 13H60.3658ZM60.3658 1.85715V13H62.3658V1.85715H60.3658Z" fill="currentColor"/>
            <path d="M73.3658 13C73.3658 13.5523 73.8136 14 74.3658 14C74.9181 14 75.3658 13.5523 75.3658 13H73.3658ZM73.3658 1.85715V13H75.3658V1.85715H73.3658Z" fill="currentColor"/>
        </symbol>

        <symbol id="cart_icon" viewBox="0 0 54 54">
            <path fill-rule="evenodd" clip-rule="evenodd" d="M17.5496 45.9C19.7864 45.9 21.5996 47.7132 21.5996 49.95C21.5996 52.1868 19.7864 54 17.5496 54C15.3129 54 13.4997 52.1868 13.4997 49.95C13.4997 47.7132 15.3129 45.9 17.5496 45.9ZM41.8492 45.9C44.0859 45.9 45.8991 47.7132 45.8991 49.95C45.8991 52.1868 44.0859 54 41.8492 54C39.6124 54 37.7992 52.1868 37.7992 49.95C37.7992 47.7132 39.6124 45.9 41.8492 45.9ZM2.69995 0H8.09984C9.32994 0 10.3902 0.828469 10.7054 1.9919L10.7684 2.28945L12.0777 10.8H51.299C52.9183 10.8 54.1472 12.2058 53.9857 13.7709L53.9346 14.0857L49.4744 34.1571C48.6866 37.7021 45.645 40.2687 42.0596 40.4852L41.5674 40.5H18.1324C14.2945 40.5 11.0076 37.8118 10.213 34.1007L10.1267 33.6317L5.7835 5.4H2.69995C1.20881 5.4 0 4.19117 0 2.7C0 1.31534 1.04229 0.174131 2.38507 0.0181648L2.69995 0H8.09984H2.69995ZM47.9332 16.2H12.9084L15.4638 32.8106C15.6509 34.0264 16.6309 34.9484 17.8287 35.083L18.1324 35.1H41.5674C42.7274 35.1 43.7448 34.3615 44.1177 33.2868L44.2031 32.9857L47.9332 16.2Z" fill="currentColor"/>
        </symbol>

        <symbol id="contact" viewBox="0 0 81 57" fill="none">
            <path d="M71.0144 33.3858C72.4951 33.6742 73.856 34.397 74.9228 35.4617C75.9896 36.5265 76.7137 37.8847 77.0026 39.3626M71.0144 27.3333C74.0908 27.6745 76.9596 29.0495 79.1497 31.2327C81.3398 33.4158 82.7211 36.2774 83.0667 39.3475M81.5507 51.4221V55.9615C81.5524 56.3829 81.4659 56.8 81.2968 57.1861C81.1276 57.5722 80.8795 57.9188 80.5684 58.2037C80.2573 58.4886 79.89 58.7055 79.49 58.8405C79.0901 58.9755 78.6663 59.0257 78.2458 58.9877C73.5807 58.4818 69.0997 56.8908 65.1626 54.3425C61.4996 52.0193 58.3941 48.9197 56.0665 45.2638C53.5044 41.3164 51.91 36.8221 51.4123 32.1451C51.3744 31.7266 51.4243 31.3049 51.5586 30.9068C51.693 30.5086 51.9089 30.1427 52.1927 29.8324C52.4765 29.5221 52.8219 29.2742 53.207 29.1045C53.592 28.9347 54.0083 28.8469 54.4292 28.8465H58.9772C59.713 28.8392 60.4262 29.0993 60.9841 29.5781C61.5419 30.0569 61.9063 30.7219 62.0093 31.449C62.2012 32.9017 62.5572 34.3281 63.0705 35.7009C63.2744 36.2425 63.3186 36.831 63.1977 37.3969C63.0768 37.9627 62.7959 38.4821 62.3883 38.8935L60.4629 40.8152C62.6211 44.6034 65.7636 47.7399 69.559 49.8939L71.4843 47.9722C71.8965 47.5654 72.4169 47.2851 72.9839 47.1644C73.5508 47.0437 74.1405 47.0878 74.6831 47.2913C76.0586 47.8036 77.4877 48.1589 78.9431 48.3505C79.6796 48.4542 80.3521 48.8244 80.8329 49.3908C81.3137 49.9571 81.5691 50.6801 81.5507 51.4221Z" stroke="currentColor" stroke-width="3" stroke-linecap="round" stroke-linejoin="round"/>
            <path d="M33.6667 23.1111C33.6667 24.0443 33.296 24.9392 32.6361 25.5991C31.9763 26.2589 31.0813 26.6296 30.1481 26.6296H9.03704L2 33.6667V5.51852C2 4.58535 2.3707 3.6904 3.03055 3.03055C3.6904 2.3707 4.58535 2 5.51852 2H30.1481C31.0813 2 31.9763 2.3707 32.6361 3.03055C33.296 3.6904 33.6667 4.58535 33.6667 5.51852V23.1111Z" stroke="currentColor" stroke-width="3" stroke-linecap="round" stroke-linejoin="round"/>                <path d="M72.3 2L8.33337 57.7333" stroke="currentColor" stroke-width="2"/>
        </symbol>

        <symbol id="menu" viewBox="0 0 74 45">
            <rect x="2" y="2" width="70" height="8" rx="4" fill="currentColor"/>
            <rect x="2" y="20" width="70" height="7" rx="3.5" fill="currentColor"/>
            <rect x="2" y="36" width="70" height="7" rx="3.5" fill="currentColor"/>
        </symbol>

        <symbol id="menu" viewBox="0 0 74 45">
            <rect x="2" y="2" width="70" height="8" rx="4" fill="currentColor"/>
            <rect x="2" y="20" width="70" height="7" rx="3.5" fill="currentColor"/>
            <rect x="2" y="36" width="70" height="7" rx="3.5" fill="currentColor"/>
        </symbol>

        <symbol id="delivery" viewBox="0 0 75 52">
            <path d="M60.8333 15.8778L62.6847 14.1931C62.2107 13.6693 61.5383 13.3708 60.8333 13.3708V15.8778ZM72.5 28.7709H75C75 28.1482 74.7687 27.5475 74.3513 27.0862L72.5 28.7709ZM72.5 42.6194L72.5003 45.1264C73.881 45.1261 75 44.0039 75 42.6194H72.5ZM49.1667 15.8778V13.3708C47.786 13.3708 46.6667 14.4933 46.6667 15.8778H49.1667ZM2.50001 0C1.11928 0 0 1.12244 0 2.50702C0 3.8916 1.11928 5.01404 2.50001 5.01404V0ZM49.1667 2.50702H51.6667C51.6667 1.12244 50.5474 0 49.1667 0V2.50702ZM12.5007 40.1124C11.1199 40.112 10.0004 41.2342 10 42.6187C9.9996 44.0033 11.1186 45.1261 12.4993 45.1264L12.5007 40.1124ZM14.1667 25.0702C15.5474 25.0702 16.6667 23.9478 16.6667 22.5632C16.6667 21.1787 15.5474 20.0562 14.1667 20.0562V25.0702ZM9.16667 20.0562C7.78594 20.0562 6.66667 21.1787 6.66667 22.5632C6.66667 23.9478 7.78594 25.0702 9.16667 25.0702V20.0562ZM14.1667 35.0983C15.5474 35.0983 16.6667 33.9758 16.6667 32.5913C16.6667 31.2067 15.5474 30.0843 14.1667 30.0843V35.0983ZM12.5 30.0843C11.1193 30.0843 10 31.2067 10 32.5913C10 33.9758 11.1193 35.0983 12.5 35.0983V30.0843ZM14.1667 15.0422C15.5474 15.0422 16.6667 13.9197 16.6667 12.5351C16.6667 11.1505 15.5474 10.0281 14.1667 10.0281V15.0422ZM5.83334 10.0281C4.45261 10.0281 3.33334 11.1505 3.33334 12.5351C3.33334 13.9197 4.45261 15.0422 5.83334 15.0422V10.0281ZM58.982 17.5625L70.6487 30.4556L74.3513 27.0862L62.6847 14.1931L58.982 17.5625ZM70 28.7709V42.6194H75V28.7709H70ZM72.4997 40.1124L65.5487 40.1134L65.5493 45.1274L72.5003 45.1264L72.4997 40.1124ZM67.9063 41.7854C66.8783 38.8669 64.1033 36.7697 60.8333 36.7697V41.7837C61.918 41.7837 62.8477 42.478 63.1917 43.4554L67.9063 41.7854ZM60.8333 36.7697C57.5634 36.7697 54.788 38.8669 53.76 41.7854L58.4747 43.4554C58.819 42.478 59.7483 41.7837 60.8333 41.7837V36.7697ZM56.1177 40.1134L49.167 40.1124L49.1664 45.1264L56.117 45.1274L56.1177 40.1134ZM51.6667 42.6194V15.8778H46.6667V42.6194H51.6667ZM49.1667 18.3848H60.8333V13.3708H49.1667V18.3848ZM2.50001 5.01404H49.1667V0H2.50001V5.01404ZM46.6667 2.50702V42.6194H51.6667V2.50702H46.6667ZM49.167 40.1124L25.5491 40.1134L25.5493 45.1274L49.1664 45.1264L49.167 40.1124ZM27.9064 41.7854C26.8784 38.8669 24.1033 36.7697 20.8333 36.7697V41.7837C21.9181 41.7837 22.8476 42.478 23.1919 43.4554L27.9064 41.7854ZM20.8333 36.7697C17.5633 36.7697 14.7882 38.8669 13.7602 41.7854L18.4748 43.4554C18.819 42.478 19.7485 41.7837 20.8333 41.7837V36.7697ZM16.1182 40.1134L12.5007 40.1124L12.4993 45.1264L16.1168 45.1274L16.1182 40.1134ZM60.8333 41.7837C62.214 41.7837 63.3333 42.9062 63.3333 44.2907H68.3333C68.3333 40.1371 64.9753 36.7697 60.8333 36.7697V41.7837ZM63.3333 44.2907C63.3333 45.6753 62.214 46.7977 60.8333 46.7977V51.8118C64.9753 51.8118 68.3333 48.4443 68.3333 44.2907H63.3333ZM60.8333 46.7977C59.4527 46.7977 58.3334 45.6753 58.3334 44.2907H53.3334C53.3334 48.4443 56.691 51.8118 60.8333 51.8118V46.7977ZM58.3334 44.2907C58.3334 42.9062 59.4527 41.7837 60.8333 41.7837V36.7697C56.691 36.7697 53.3334 40.1371 53.3334 44.2907H58.3334ZM20.8333 41.7837C22.214 41.7837 23.3333 42.9062 23.3333 44.2907H28.3333C28.3333 40.1371 24.9755 36.7697 20.8333 36.7697V41.7837ZM23.3333 44.2907C23.3333 45.6753 22.214 46.7977 20.8333 46.7977V51.8118C24.9755 51.8118 28.3333 48.4443 28.3333 44.2907H23.3333ZM20.8333 46.7977C19.4526 46.7977 18.3333 45.6753 18.3333 44.2907H13.3333C13.3333 48.4443 16.6912 51.8118 20.8333 51.8118V46.7977ZM18.3333 44.2907C18.3333 42.9062 19.4526 41.7837 20.8333 41.7837V36.7697C16.6912 36.7697 13.3333 40.1371 13.3333 44.2907H18.3333ZM14.1667 20.0562H9.16667V25.0702H14.1667V20.0562ZM14.1667 30.0843H12.5V35.0983H14.1667V30.0843ZM14.1667 10.0281H5.83334V15.0422H14.1667V10.0281ZM53.76 41.7854C53.483 42.5722 53.3334 43.4166 53.3334 44.2907H58.3334C58.3334 43.9932 58.3837 43.7134 58.4747 43.4554L53.76 41.7854ZM68.3333 44.2907C68.3333 43.4166 68.1837 42.5722 67.9063 41.7854L63.1917 43.4554C63.2827 43.7134 63.3333 43.9932 63.3333 44.2907H68.3333ZM13.7602 41.7854C13.483 42.5722 13.3333 43.4166 13.3333 44.2907H18.3333C18.3333 43.9932 18.3839 43.7134 18.4748 43.4554L13.7602 41.7854ZM28.3333 44.2907C28.3333 43.4166 28.1836 42.5722 27.9064 41.7854L23.1919 43.4554C23.2828 43.7134 23.3333 43.9932 23.3333 44.2907H28.3333Z" fill="currentColor"/>
        </symbol>
    </defs>
</svg>