<svg fill="none" xmlns="http://www.w3.org/2000/svg">
    <defs>
        <symbol id="measurement" viewBox="0 0 111 39" fill="none">
            <path d="M16.8573 18.201C17.8573 18.7783 17.8573 20.2217 16.8573 20.7991L3.25016 28.6552C2.25016 29.2325 1.00016 28.5108 1.00016 27.3561L1.00016 11.6439C1.00016 10.4892 2.25016 9.76756 3.25016 10.3449L16.8573 18.201Z" stroke="currentColor" stroke-width="2"/>
            <path d="M93.1533 20.5597C92.1533 19.9823 92.1533 18.5389 93.1533 17.9616L106.76 10.1055C107.76 9.52814 109.01 10.2498 109.01 11.4045V27.1167C109.01 28.2714 107.76 28.9931 106.76 28.4157L93.1533 20.5597Z" stroke="currentColor" stroke-width="2"/>
            <path d="M30.0001 1.5H80.0001C83.0377 1.5 85.5001 3.96243 85.5001 7V37.5H24.5001V7C24.5001 3.96243 26.9626 1.5 30.0001 1.5Z" stroke="currentColor" stroke-width="3"/>
            <path d="M34.3658 13C34.3658 13.5523 34.8136 14 35.3658 14C35.9181 14 36.3658 13.5523 36.3658 13H34.3658ZM34.3658 1.85715V13H36.3658V1.85715H34.3658Z" fill="currentColor"/>
            <path d="M47.3657 13C47.3657 13.5523 47.8134 14 48.3657 14C48.918 14 49.3657 13.5523 49.3657 13H47.3657ZM47.3657 1.85715V13H49.3657V1.85715H47.3657Z" fill="currentColor"/>
            <path d="M60.3658 13C60.3658 13.5523 60.8136 14 61.3658 14C61.9181 14 62.3658 13.5523 62.3658 13H60.3658ZM60.3658 1.85715V13H62.3658V1.85715H60.3658Z" fill="currentColor"/>
            <path d="M73.3658 13C73.3658 13.5523 73.8136 14 74.3658 14C74.9181 14 75.3658 13.5523 75.3658 13H73.3658ZM73.3658 1.85715V13H75.3658V1.85715H73.3658Z" fill="currentColor"/>
        </symbol>

        <symbol id="cart_icon" viewBox="0 0 54 54">
            <path fill-rule="evenodd" clip-rule="evenodd" d="M17.5496 45.9C19.7864 45.9 21.5996 47.7132 21.5996 49.95C21.5996 52.1868 19.7864 54 17.5496 54C15.3129 54 13.4997 52.1868 13.4997 49.95C13.4997 47.7132 15.3129 45.9 17.5496 45.9ZM41.8492 45.9C44.0859 45.9 45.8991 47.7132 45.8991 49.95C45.8991 52.1868 44.0859 54 41.8492 54C39.6124 54 37.7992 52.1868 37.7992 49.95C37.7992 47.7132 39.6124 45.9 41.8492 45.9ZM2.69995 0H8.09984C9.32994 0 10.3902 0.828469 10.7054 1.9919L10.7684 2.28945L12.0777 10.8H51.299C52.9183 10.8 54.1472 12.2058 53.9857 13.7709L53.9346 14.0857L49.4744 34.1571C48.6866 37.7021 45.645 40.2687 42.0596 40.4852L41.5674 40.5H18.1324C14.2945 40.5 11.0076 37.8118 10.213 34.1007L10.1267 33.6317L5.7835 5.4H2.69995C1.20881 5.4 0 4.19117 0 2.7C0 1.31534 1.04229 0.174131 2.38507 0.0181648L2.69995 0H8.09984H2.69995ZM47.9332 16.2H12.9084L15.4638 32.8106C15.6509 34.0264 16.6309 34.9484 17.8287 35.083L18.1324 35.1H41.5674C42.7274 35.1 43.7448 34.3615 44.1177 33.2868L44.2031 32.9857L47.9332 16.2Z" fill="currentColor"/>
        </symbol>

        <symbol id="contact" viewBox="0 0 81 57" fill="none">
            <path d="M71.0144 33.3858C72.4951 33.6742 73.856 34.397 74.9228 35.4617C75.9896 36.5265 76.7137 37.8847 77.0026 39.3626M71.0144 27.3333C74.0908 27.6745 76.9596 29.0495 79.1497 31.2327C81.3398 33.4158 82.7211 36.2774 83.0667 39.3475M81.5507 51.4221V55.9615C81.5524 56.3829 81.4659 56.8 81.2968 57.1861C81.1276 57.5722 80.8795 57.9188 80.5684 58.2037C80.2573 58.4886 79.89 58.7055 79.49 58.8405C79.0901 58.9755 78.6663 59.0257 78.2458 58.9877C73.5807 58.4818 69.0997 56.8908 65.1626 54.3425C61.4996 52.0193 58.3941 48.9197 56.0665 45.2638C53.5044 41.3164 51.91 36.8221 51.4123 32.1451C51.3744 31.7266 51.4243 31.3049 51.5586 30.9068C51.693 30.5086 51.9089 30.1427 52.1927 29.8324C52.4765 29.5221 52.8219 29.2742 53.207 29.1045C53.592 28.9347 54.0083 28.8469 54.4292 28.8465H58.9772C59.713 28.8392 60.4262 29.0993 60.9841 29.5781C61.5419 30.0569 61.9063 30.7219 62.0093 31.449C62.2012 32.9017 62.5572 34.3281 63.0705 35.7009C63.2744 36.2425 63.3186 36.831 63.1977 37.3969C63.0768 37.9627 62.7959 38.4821 62.3883 38.8935L60.4629 40.8152C62.6211 44.6034 65.7636 47.7399 69.559 49.8939L71.4843 47.9722C71.8965 47.5654 72.4169 47.2851 72.9839 47.1644C73.5508 47.0437 74.1405 47.0878 74.6831 47.2913C76.0586 47.8036 77.4877 48.1589 78.9431 48.3505C79.6796 48.4542 80.3521 48.8244 80.8329 49.3908C81.3137 49.9571 81.5691 50.6801 81.5507 51.4221Z" stroke="currentColor" stroke-width="3" stroke-linecap="round" stroke-linejoin="round"/>
            <path d="M33.6667 23.1111C33.6667 24.0443 33.296 24.9392 32.6361 25.5991C31.9763 26.2589 31.0813 26.6296 30.1481 26.6296H9.03704L2 33.6667V5.51852C2 4.58535 2.3707 3.6904 3.03055 3.03055C3.6904 2.3707 4.58535 2 5.51852 2H30.1481C31.0813 2 31.9763 2.3707 32.6361 3.03055C33.296 3.6904 33.6667 4.58535 33.6667 5.51852V23.1111Z" stroke="currentColor" stroke-width="3" stroke-linecap="round" stroke-linejoin="round"/>                <path d="M72.3 2L8.33337 57.7333" stroke="currentColor" stroke-width="2"/>
        </symbol>

        <symbol id="menu" viewBox="0 0 74 45">
            <rect x="2" y="2" width="70" height="8" rx="4" fill="currentColor"/>
            <rect x="2" y="20" width="70" height="7" rx="3.5" fill="currentColor"/>
            <rect x="2" y="36" width="70" height="7" rx="3.5" fill="currentColor"/>
        </symbol>

        <symbol id="menu" viewBox="0 0 74 45">
            <rect x="2" y="2" width="70" height="8" rx="4" fill="currentColor"/>
            <rect x="2" y="20" width="70" height="7" rx="3.5" fill="currentColor"/>
            <rect x="2" y="36" width="70" height="7" rx="3.5" fill="currentColor"/>
        </symbol>

        <symbol id="delivery" viewBox="0 0 75 52">
            <path d="M60.8333 15.8778L62.6847 14.1931C62.2107 13.6693 61.5383 13.3708 60.8333 13.3708V15.8778ZM72.5 28.7709H75C75 28.1482 74.7687 27.5475 74.3513 27.0862L72.5 28.7709ZM72.5 42.6194L72.5003 45.1264C73.881 45.1261 75 44.0039 75 42.6194H72.5ZM49.1667 15.8778V13.3708C47.786 13.3708 46.6667 14.4933 46.6667 15.8778H49.1667ZM2.50001 0C1.11928 0 0 1.12244 0 2.50702C0 3.8916 1.11928 5.01404 2.50001 5.01404V0ZM49.1667 2.50702H51.6667C51.6667 1.12244 50.5474 0 49.1667 0V2.50702ZM12.5007 40.1124C11.1199 40.112 10.0004 41.2342 10 42.6187C9.9996 44.0033 11.1186 45.1261 12.4993 45.1264L12.5007 40.1124ZM14.1667 25.0702C15.5474 25.0702 16.6667 23.9478 16.6667 22.5632C16.6667 21.1787 15.5474 20.0562 14.1667 20.0562V25.0702ZM9.16667 20.0562C7.78594 20.0562 6.66667 21.1787 6.66667 22.5632C6.66667 23.9478 7.78594 25.0702 9.16667 25.0702V20.0562ZM14.1667 35.0983C15.5474 35.0983 16.6667 33.9758 16.6667 32.5913C16.6667 31.2067 15.5474 30.0843 14.1667 30.0843V35.0983ZM12.5 30.0843C11.1193 30.0843 10 31.2067 10 32.5913C10 33.9758 11.1193 35.0983 12.5 35.0983V30.0843ZM14.1667 15.0422C15.5474 15.0422 16.6667 13.9197 16.6667 12.5351C16.6667 11.1505 15.5474 10.0281 14.1667 10.0281V15.0422ZM5.83334 10.0281C4.45261 10.0281 3.33334 11.1505 3.33334 12.5351C3.33334 13.9197 4.45261 15.0422 5.83334 15.0422V10.0281ZM58.982 17.5625L70.6487 30.4556L74.3513 27.0862L62.6847 14.1931L58.982 17.5625ZM70 28.7709V42.6194H75V28.7709H70ZM72.4997 40.1124L65.5487 40.1134L65.5493 45.1274L72.5003 45.1264L72.4997 40.1124ZM67.9063 41.7854C66.8783 38.8669 64.1033 36.7697 60.8333 36.7697V41.7837C61.918 41.7837 62.8477 42.478 63.1917 43.4554L67.9063 41.7854ZM60.8333 36.7697C57.5634 36.7697 54.788 38.8669 53.76 41.7854L58.4747 43.4554C58.819 42.478 59.7483 41.7837 60.8333 41.7837V36.7697ZM56.1177 40.1134L49.167 40.1124L49.1664 45.1264L56.117 45.1274L56.1177 40.1134ZM51.6667 42.6194V15.8778H46.6667V42.6194H51.6667ZM49.1667 18.3848H60.8333V13.3708H49.1667V18.3848ZM2.50001 5.01404H49.1667V0H2.50001V5.01404ZM46.6667 2.50702V42.6194H51.6667V2.50702H46.6667ZM49.167 40.1124L25.5491 40.1134L25.5493 45.1274L49.1664 45.1264L49.167 40.1124ZM27.9064 41.7854C26.8784 38.8669 24.1033 36.7697 20.8333 36.7697V41.7837C21.9181 41.7837 22.8476 42.478 23.1919 43.4554L27.9064 41.7854ZM20.8333 36.7697C17.5633 36.7697 14.7882 38.8669 13.7602 41.7854L18.4748 43.4554C18.819 42.478 19.7485 41.7837 20.8333 41.7837V36.7697ZM16.1182 40.1134L12.5007 40.1124L12.4993 45.1264L16.1168 45.1274L16.1182 40.1134ZM60.8333 41.7837C62.214 41.7837 63.3333 42.9062 63.3333 44.2907H68.3333C68.3333 40.1371 64.9753 36.7697 60.8333 36.7697V41.7837ZM63.3333 44.2907C63.3333 45.6753 62.214 46.7977 60.8333 46.7977V51.8118C64.9753 51.8118 68.3333 48.4443 68.3333 44.2907H63.3333ZM60.8333 46.7977C59.4527 46.7977 58.3334 45.6753 58.3334 44.2907H53.3334C53.3334 48.4443 56.691 51.8118 60.8333 51.8118V46.7977ZM58.3334 44.2907C58.3334 42.9062 59.4527 41.7837 60.8333 41.7837V36.7697C56.691 36.7697 53.3334 40.1371 53.3334 44.2907H58.3334ZM20.8333 41.7837C22.214 41.7837 23.3333 42.9062 23.3333 44.2907H28.3333C28.3333 40.1371 24.9755 36.7697 20.8333 36.7697V41.7837ZM23.3333 44.2907C23.3333 45.6753 22.214 46.7977 20.8333 46.7977V51.8118C24.9755 51.8118 28.3333 48.4443 28.3333 44.2907H23.3333ZM20.8333 46.7977C19.4526 46.7977 18.3333 45.6753 18.3333 44.2907H13.3333C13.3333 48.4443 16.6912 51.8118 20.8333 51.8118V46.7977ZM18.3333 44.2907C18.3333 42.9062 19.4526 41.7837 20.8333 41.7837V36.7697C16.6912 36.7697 13.3333 40.1371 13.3333 44.2907H18.3333ZM14.1667 20.0562H9.16667V25.0702H14.1667V20.0562ZM14.1667 30.0843H12.5V35.0983H14.1667V30.0843ZM14.1667 10.0281H5.83334V15.0422H14.1667V10.0281ZM53.76 41.7854C53.483 42.5722 53.3334 43.4166 53.3334 44.2907H58.3334C58.3334 43.9932 58.3837 43.7134 58.4747 43.4554L53.76 41.7854ZM68.3333 44.2907C68.3333 43.4166 68.1837 42.5722 67.9063 41.7854L63.1917 43.4554C63.2827 43.7134 63.3333 43.9932 63.3333 44.2907H68.3333ZM13.7602 41.7854C13.483 42.5722 13.3333 43.4166 13.3333 44.2907H18.3333C18.3333 43.9932 18.3839 43.7134 18.4748 43.4554L13.7602 41.7854ZM28.3333 44.2907C28.3333 43.4166 28.1836 42.5722 27.9064 41.7854L23.1919 43.4554C23.2828 43.7134 23.3333 43.9932 23.3333 44.2907H28.3333Z" fill="currentColor"/>
        </symbol>

        <symbol id="hide" viewBox="0 0 59 55">
            <path d="M29.5 30.9474L28.05 32.3249C28.4276 32.7223 28.9518 32.9474 29.5 32.9474C30.0482 32.9474 30.5724 32.7223 30.95 32.3249L29.5 30.9474ZM0.550001 3.3775L28.05 32.3249L30.95 29.5699L3.45 0.622501L0.550001 3.3775ZM30.95 32.3249L58.45 3.3775L55.55 0.622501L28.05 29.5699L30.95 32.3249Z" fill="currentColor"/>
            <path d="M29.5 52.6579L28.05 54.0354C28.4276 54.4329 28.9518 54.6579 29.5 54.6579C30.0482 54.6579 30.5724 54.4329 30.95 54.0354L29.5 52.6579ZM0.550001 25.088L28.05 54.0354L30.95 51.2804L3.45 22.333L0.550001 25.088ZM30.95 54.0354L58.45 25.088L55.55 22.333L28.05 51.2804L30.95 54.0354Z" fill="currentColor"/>
        </symbol>

        <symbol id="stringy" viewBox="0 0 52 37" fill="none">
            <path d="M23.7749 35H28.2253M1 1C1 1 16.2891 3 26.2475 3C36.2059 3 51 1 51 1L49.5149 5C47.5 7 36.6436 9 32.6832 13.5C27.717 18.3787 28.2277 28.4535 28.2277 36H23.7723C23.7723 29.5643 24.2066 19.2021 19.8119 13.5C15.4489 7.83903 5.27849 6.82151 1.9901 5L1 1Z" stroke="currentColor" stroke-width="2" stroke-linejoin="round"/>
        </symbol>

        <symbol id="sleepy" viewBox="0 0 75 55">
            <path d="M33.7 50.9333H42.3M5.74996 14.3833L2.16663 2.2C2.16663 2.2 23.4425 4.65714 37.859 4.65714C52.2754 4.65714 72.4 2.2 72.4 2.2L70.25 14.3833M5.74996 14.3833C5.74996 14.3833 21.7399 19.4 37.859 19.4C53.9781 19.4 70.25 14.3833 70.25 14.3833M5.74996 14.3833C15.3055 19.624 33.7 33.9842 33.7 52.3667H42.3C42.3 33.9842 60.6944 19.624 70.25 14.3833" stroke="currentColor" stroke-width="4" stroke-linejoin="round" fill='transparent'/>
        </symbol>

        <symbol id="boxer" viewBox="0 0 42 35" fill="none">
            <path d="M21.0085 26.7893L19.8258 33.2545C19.8108 33.3416 19.7784 33.4248 19.7306 33.4991C19.6828 33.5735 19.6206 33.6375 19.5476 33.6873C19.4746 33.7372 19.3924 33.7718 19.3057 33.7893C19.2191 33.8067 19.1298 33.8066 19.0432 33.7889L1.52794 30.2098C1.35984 30.1755 1.21172 30.077 1.11496 29.9353C1.01821 29.7936 0.980433 29.6198 1.00963 29.4508L5.82846 1.54773C5.85495 1.39442 5.93474 1.25539 6.05374 1.15518C6.17275 1.05497 6.32333 1.00001 6.47892 1H35.5211C35.6767 1.00001 35.8272 1.05497 35.9462 1.15518C36.0653 1.25539 36.145 1.39442 36.1715 1.54773L40.9904 29.4508C41.0196 29.6198 40.9818 29.7936 40.8851 29.9353C40.7883 30.077 40.6402 30.1754 40.4722 30.2098L22.9577 33.7889C22.8712 33.8066 22.782 33.8067 22.6954 33.7893C22.6089 33.7719 22.5267 33.7373 22.4537 33.6875C22.3807 33.6378 22.3185 33.5739 22.2707 33.4996C22.2229 33.4254 22.1904 33.3423 22.1753 33.2553L22.1742 33.2545L21.0085 26.7893ZM21.0085 26.7893V26L20.1416 25.3782C18.205 23.9892 17.4949 21.4402 18.4345 19.25V19.25L21.0432 10.5" stroke="currentColor" stroke-width="2" stroke-linecap="round" stroke-linejoin="round"/>
        </symbol>

        <symbol id="special" viewBox="0 0 44 44">
            <path d="M0 27.3001C1.48494 27.2316 2.74143 26.6604 3.76947 25.5867C4.79751 24.513 5.32295 23.2336 5.32295 21.7487C5.32295 23.2336 5.82555 24.513 6.85358 25.5867C7.88162 26.6604 9.13811 27.2316 10.6231 27.3001C9.13811 27.3686 7.88162 27.9398 6.85358 29.0135C5.82555 30.0872 5.32295 31.3666 5.32295 32.8515C5.32295 31.3666 4.82035 30.0872 3.76947 29.0135C2.74143 27.9398 1.48494 27.3686 0 27.3001ZM5.32295 10.8515C8.20145 10.7144 10.6459 9.59502 12.6563 7.49325C14.6667 5.39149 15.6719 2.90135 15.6719 0C15.6719 2.90135 16.6771 5.39149 18.6874 7.49325C20.6978 9.59502 23.1423 10.6916 26.0436 10.8515C24.1475 10.9429 22.4112 11.4683 20.812 12.4735C19.2357 13.4559 17.9792 14.7809 17.0426 16.4258C16.1288 18.0706 15.6719 19.8297 15.6719 21.7487C15.6719 18.8474 14.6667 16.3344 12.6563 14.2326C10.6459 12.108 8.20145 10.9886 5.32295 10.8515ZM12.9076 35.4559C15.0779 35.3645 16.9284 34.5192 18.4361 32.9429C19.9439 31.3666 20.6978 29.4933 20.6978 27.3001C20.6978 29.4933 21.4517 31.3666 22.9595 32.9429C24.4673 34.5192 26.2949 35.3645 28.4652 35.4559C26.2949 35.5472 24.4673 36.3925 22.9595 37.9688C21.4517 39.5452 20.6978 41.4185 20.6978 43.6116C20.6978 41.4185 19.9439 39.5452 18.4361 37.9688C16.9055 36.3925 15.0779 35.5701 12.9076 35.4559ZM28.4652 24.6272C30.6355 24.5358 32.4631 23.6906 33.9709 22.1142C35.4787 20.5379 36.2098 18.6646 36.2098 16.4486C36.2098 18.6417 36.9637 20.5151 38.4714 22.0914C39.9792 23.6677 41.8297 24.513 44 24.6044C41.8297 24.6957 39.9792 25.541 38.4714 27.1173C36.9637 28.6937 36.2098 30.567 36.2098 32.7601C36.2098 30.567 35.4559 28.6937 33.9709 27.1173C32.4631 25.5639 30.6355 24.7186 28.4652 24.6272Z" fill="currentColor"/>
        </symbol>

        <symbol id="filter_icon" viewBox="0 0 55 55">
            <path d="M32.0833 55H22.9167C21.7011 55 20.5353 54.5171 19.6758 53.6576C18.8162 52.798 18.3333 51.6322 18.3333 50.4167V33.0229L1.35208 16.0417C0.491362 15.1861 0.00511681 14.024 0 12.8104V4.58333C0 3.36776 0.482885 2.20197 1.34243 1.34243C2.20197 0.482885 3.36776 0 4.58333 0H50.4167C51.6322 0 52.798 0.482885 53.6576 1.34243C54.5171 2.20197 55 3.36776 55 4.58333V12.8104C54.9949 14.024 54.5086 15.1861 53.6479 16.0417L36.6667 33.0229V50.4167C36.6667 51.6322 36.1838 52.798 35.3242 53.6576C34.4647 54.5171 33.2989 55 32.0833 55ZM4.58333 4.58333V12.8104L22.9167 31.1438V50.4167H32.0833V31.1438L50.4167 12.8104V4.58333H4.58333Z" fill="currentColor"/>
        </symbol>

        <symbol id="left_arrow">
            <path d="M32 68.4326L3 35.9256L32 3.4186" stroke="currentColor" stroke-width="5" stroke-linecap="round" stroke-linejoin="round" fill="transparent"/>
        </symbol>

        <symbol id="right_arrow">
            <path d="M3 3.41861L32 35.9256L3 68.4326" stroke="currentColor" stroke-width="5" stroke-linecap="round" stroke-linejoin="round" fill="transparent"/>
        </symbol>

        <symbol id="message" width="50" height="50" fill="transparent">
            <path d="M48 32.6667C48 34.0222 47.4615 35.3222 46.503 36.2808C45.5445 37.2393 44.2444 37.7778 42.8889 37.7778H12.2222L2 48V7.11111C2 5.75556 2.53849 4.45553 3.49701 3.49701C4.45553 2.53849 5.75556 2 7.11111 2H42.8889C44.2444 2 45.5445 2.53849 46.503 3.49701C47.4615 4.45553 48 5.75556 48 7.11111V32.6667Z" fill="#C8BDC0" stroke="currentColor" stroke-width="3" stroke-linecap="round" stroke-linejoin="round"/>
        </symbol>

        <symbol id="ok" viewBox="0 0 82 57">
            <path d="M79 3L26.75 54L3 30.8182" stroke="currentColor" stroke-width="6" stroke-linecap="round" stroke-linejoin="round" fill="transparent"/>
        </symbol>
    </defs>
</svg>

