<svg fill="none" xmlns="http://www.w3.org/2000/svg">
  <defs>
    <symbol id="catalog_small" viewBox="0 0 36 36">
      <path d="M19.125 27H23.625V31.5H19.125V27Z" fill="currentColor" stroke="currentColor" stroke-width="2"/>
      <path d="M27 27H31.5V31.5H27V27Z" fill="currentColor" stroke="currentColor" stroke-width="2"/>
      <path d="M19.125 19.125H23.625V23.625H19.125V19.125Z" fill="currentColor" stroke="currentColor" stroke-width="2"/>
      <path d="M27 19.125H31.5V23.625H27V19.125Z" fill="currentColor" stroke="currentColor" stroke-width="2"/>
      <path d="M31.5 12.375H24.75V7.875C24.75 5.9625 23.2875 4.5 21.375 4.5H14.625C12.7125 4.5 11.25 5.9625 11.25 7.875V12.375H4.5C3.825 12.375 3.375 12.825 3.375 13.5V13.725L5.5125 27.3375C5.625 28.4625 6.6375 29.25 7.7625 29.25H16.875V27H7.7625L5.85 14.625H31.5V12.375ZM13.5 7.875C13.5 7.2 13.95 6.75 14.625 6.75H21.375C22.05 6.75 22.5 7.2 22.5 7.875V12.375H13.5V7.875Z" fill="currentColor"/>
    </symbol>
  </defs>
</svg>
