<svg width="43" height="47" viewBox="0 0 43 47" fill="none" xmlns="http://www.w3.org/2000/svg">
  <defs>
    <symbol id="human">
      <path d="M6.61538 6.71428C6.61544 10.138 7.76084 13.4603 9.86404 16.1372C11.9672 18.814 14.9036 20.6868 18.1923 21.4488V40.2857H24.8077L24.811 21.4454C28.0986 20.6829 31.0337 18.8103 33.1362 16.1343C35.2387 13.4582 36.384 10.137 36.3846 6.71428H43C43.0007 10.7072 41.922 14.6239 39.8813 18.0376C37.8406 21.4514 34.9161 24.2314 31.4264 26.0749L31.4231 47H11.5769V26.0783C8.08607 24.235 5.16059 21.4546 3.11924 18.0402C1.07789 14.6257 -0.00103967 10.7082 7.51747e-07 6.71428H6.61538ZM21.5 0C23.6931 0 25.7964 0.884244 27.3472 2.45821C28.898 4.03218 29.7692 6.16693 29.7692 8.39286C29.7692 10.6188 28.898 12.7535 27.3472 14.3275C25.7964 15.9015 23.6931 16.7857 21.5 16.7857C19.3069 16.7857 17.2036 15.9015 15.6528 14.3275C14.102 12.7535 13.2308 10.6188 13.2308 8.39286C13.2308 6.16693 14.102 4.03218 15.6528 2.45821C17.2036 0.884244 19.3069 0 21.5 0Z" fill="currentColor"/>
    </symbol>
  </defs>
</svg>
