<svg width="44" height="50" viewBox="0 0 44 50" fill="none" xmlns="http://www.w3.org/2000/svg">
<g id="Group">
<path id="Vector" fill-rule="evenodd" clip-rule="evenodd" d="M22.7334 20.4023H22.7276C22.5205 20.2105 22.2498 20.1019 21.9675 20.0973C21.6853 20.0927 21.4112 20.1925 21.198 20.3775C20.0486 21.509 18.9133 22.6545 17.7922 23.8139C17.6404 24.0136 17.5585 24.2577 17.559 24.5085C17.559 24.7706 17.6458 25.0129 17.7938 25.2055C18.8522 26.2936 20.1636 27.5215 21.2418 28.5906H21.2451C21.432 28.764 21.6715 28.87 21.9255 28.8919C22.1795 28.9137 22.4336 28.8502 22.6474 28.7114C23.8182 27.5918 25.1387 26.2283 26.2591 25.06C26.3753 24.8601 26.4283 24.6298 26.411 24.3992C26.3938 24.1687 26.3071 23.9488 26.1624 23.7684C25.1147 22.6828 23.8058 21.464 22.7334 20.4023Z" fill="#00AD64"/>
<g id="Mask group">
<mask id="mask0_630_32" style="mask-type:luminance" maskUnits="userSpaceOnUse" x="0" y="0" width="44" height="50">
<g id="Group_2">
<path id="Vector_2" d="M0 0H44V49.0049H0V0Z" fill="#00AD64"/>
</g>
</mask>
<g mask="url(#mask0_630_32)">
<path id="Vector_3" fill-rule="evenodd" clip-rule="evenodd" d="M32.4661 25.1465L35.4179 28.129L32.949 30.6211H32.9448C31.9402 29.6082 31.048 28.678 30.0318 27.6742C29.8295 27.5139 29.5789 27.4268 29.3207 27.427C29.0438 27.427 28.7907 27.5246 28.5931 27.6866C27.4363 28.8296 26.2914 29.9845 25.1584 31.1511C24.9986 31.3662 24.9187 31.6302 24.9326 31.8978C24.9465 32.1654 25.0532 32.4198 25.2345 32.6171L28.1011 35.5111L25.6322 38.0057H25.628C24.6474 37.016 23.7759 36.1139 22.7878 35.1316C22.576 34.9351 22.2978 34.8259 22.0089 34.8259C21.72 34.8259 21.4418 34.9351 21.23 35.1316H21.2209L18.3741 38.0074H18.3708L15.8985 35.5128C16.9147 34.4875 17.7994 33.6193 18.8049 32.584C18.9578 32.3897 19.0488 32.1442 19.0488 31.8787C19.0488 31.6621 18.9893 31.4604 18.8843 31.2867C17.8085 30.1763 16.4947 28.9104 15.3941 27.8247H15.3834C15.172 27.629 14.8947 27.5201 14.6066 27.5196C14.3186 27.5192 14.0409 27.6272 13.8289 27.8222L10.9787 30.7021H10.9738L8.5048 28.2075C9.49289 27.2095 10.3983 26.3223 11.3773 25.3144V25.3078C11.5534 25.1185 11.66 24.8751 11.6797 24.6173C11.6994 24.3595 11.6309 24.1027 11.4856 23.8889L8.50315 20.8792L10.9754 18.3846H10.9796C11.9701 19.385 12.8317 20.3169 13.8438 21.2942C14.0504 21.4754 14.3152 21.5762 14.5899 21.5783C14.8647 21.5805 15.131 21.4837 15.3404 21.3058C16.412 20.2326 17.6837 18.9675 18.7412 17.881C18.9117 17.6664 18.9997 17.3978 18.9894 17.124C18.9791 16.8501 18.8711 16.5889 18.685 16.3877L15.8199 13.4954L18.2922 11.0033H18.2964C19.277 11.993 20.1543 12.891 21.1407 13.8757H21.1482C21.3562 14.0677 21.6279 14.1761 21.911 14.1801C22.194 14.1841 22.4686 14.0833 22.682 13.8972L25.5495 11.0033H25.5544L28.0243 13.4962C26.994 14.5372 26.0481 15.4641 25.0294 16.5159C24.9015 16.7034 24.8323 16.9247 24.8303 17.1517C24.8284 17.3787 24.894 17.6012 25.0187 17.7909C26.0803 18.8906 27.4314 20.0945 28.5195 21.1694H28.541C28.7453 21.3596 29.0181 21.4737 29.3199 21.4737C29.6192 21.4737 29.8929 21.3596 30.098 21.1694H30.1096L32.9457 18.3085H32.9498L35.4188 20.8023C34.415 21.8152 33.4988 22.723 32.5 23.7442C32.3402 23.9414 32.2503 24.186 32.2443 24.4397C32.2383 24.6935 32.3158 24.942 32.4661 25.1465ZM43.9494 15.0135C43.9292 14.8043 43.8969 14.5964 43.8526 14.3909C43.7994 14.1363 43.7324 13.8848 43.6517 13.6376C43.5581 13.3439 43.4454 13.0567 43.3144 12.7777C43.071 12.26 42.7677 11.7726 42.4106 11.3257C42.2447 11.1216 42.0683 10.9262 41.8823 10.7403C41.7149 10.5709 41.5394 10.4098 41.3564 10.2574C41.2812 10.1983 41.2048 10.1407 41.1273 10.0846L41.0877 10.0549C41.0127 10.0025 40.9366 9.95173 40.8594 9.90273L40.5138 9.67121L25.5478 0.949593L25.2493 0.797452C25.1207 0.729307 24.9903 0.664516 24.8582 0.603142C24.6573 0.510217 24.4511 0.429319 24.2406 0.360875L24.1976 0.347646C24.1108 0.321186 24.0322 0.296381 23.9189 0.264961L23.8776 0.254212C23.517 0.15519 23.1494 0.0838729 22.7779 0.0408843C21.8886 -0.0517247 20.9899 0.019174 20.1262 0.250077C19.8982 0.311504 19.6736 0.384639 19.4531 0.469193C19.3539 0.506401 19.2588 0.546917 19.1679 0.589086L19.1282 0.609757C19.067 0.63539 19 0.66681 18.8991 0.717248L18.4989 0.92396L3.46598 9.68857L3.17492 9.87875C3.07405 9.94489 2.97235 10.0127 2.89545 10.0689C2.63885 10.2541 2.39746 10.4596 2.17361 10.6833C1.86767 10.9828 1.58877 11.3087 1.34014 11.6573C0.679331 12.5901 0.246335 13.6648 0.07589 14.7952C0.0630603 14.8919 0.0528587 14.989 0.0452965 15.0862L0.0436428 15.1053C0.0403354 15.1466 0.0353743 15.1921 0.0320669 15.2483L-0.00100708 15.8064L0.00726142 33.3109L0.020491 33.5754C0.0287595 33.7077 0.0362012 33.8384 0.0477771 33.9723L0.0519113 34.0054C0.0827081 34.3059 0.136613 34.6037 0.213147 34.8959L0.231338 34.9736C0.328114 35.3441 0.454193 35.7063 0.608381 36.0568C0.779539 36.4479 0.984598 36.8233 1.22108 37.178C1.61931 37.7679 2.09958 38.298 2.64739 38.7523C2.70693 38.8011 2.77969 38.8557 2.87974 38.9276L2.95581 38.9814C3.00046 39.0112 3.0509 39.0475 3.10464 39.0806L3.47838 39.3311L18.6106 48.1371L18.6767 48.1751C18.8007 48.2396 18.9248 48.3016 19.0521 48.3653L19.0992 48.3868C19.1794 48.4224 19.2787 48.4678 19.382 48.5092C19.5292 48.5712 19.6987 48.6299 19.9004 48.6886C20.0377 48.7333 20.1543 48.7655 20.2717 48.792C20.3933 48.8242 20.5156 48.8482 20.6603 48.8722L21.0423 48.9383L21.1978 48.9582C21.316 48.9689 21.4359 48.9764 21.5541 48.983L22.0676 49.0053L22.3058 48.9904C22.4389 48.9846 22.5703 48.9772 22.7076 48.9689L22.7738 48.9631C22.8755 48.9524 22.9929 48.9408 23.1111 48.9218C23.3575 48.883 23.6015 48.8306 23.842 48.7647C24.1381 48.6828 24.3415 48.6183 24.5283 48.5439C24.6185 48.5108 24.721 48.4695 24.8326 48.4166L25.4751 48.0974L40.5502 39.3088L40.7396 39.1864C40.8636 39.1038 40.9876 39.0211 41.1166 38.9293C41.272 38.8168 41.4267 38.6936 41.5821 38.5522C41.6813 38.4638 41.7764 38.3737 41.8517 38.2968C41.9749 38.1769 42.0774 38.0677 42.1576 37.9743C42.602 37.4809 42.975 36.9276 43.2656 36.3305C43.4657 35.9171 43.6286 35.4855 43.7452 35.0464C43.8187 34.7793 43.8692 34.5528 43.9072 34.3171C43.9254 34.2096 43.9362 34.1054 43.951 33.9649C43.9593 33.8855 43.9634 33.8061 43.9676 33.74L43.9899 33.3729V33.3952L43.9998 33.2687V15.9991L43.9775 15.4451C43.9706 15.3011 43.9618 15.1572 43.9494 15.0135Z" fill="#00AD64"/>
</g>
</g>
</g>
</svg>
