<svg fill="none" xmlns="http://www.w3.org/2000/svg">
  <defs>
    <symbol id="telegram" viewBox="0 0 82 82">
      <path d="M40.98 81.96C63.6126 81.96 81.96 63.6126 81.96 40.98C81.96 18.3474 63.6126 0 40.98 0C18.3474 0 0 18.3474 0 40.98C0 63.6126 18.3474 81.96 40.98 81.96ZM34.1646 49.3152L53.1663 32.1676C54.0003 31.4274 52.9842 31.0665 51.8771 31.7378L28.4252 46.5333L18.2953 43.3716C16.1077 42.7018 16.092 41.1986 18.7865 40.1178L58.2604 24.8968C60.0633 24.0783 61.8034 25.3298 61.1152 28.0892L54.3927 59.7678C53.9233 62.0189 52.5632 62.5573 50.6786 61.5175L40.4382 53.9517L35.516 58.738C34.9442 59.294 34.4915 59.7625 33.467 59.7625L34.1643 49.315L34.1646 49.3152Z" fill="currentColor"/>
    </symbol>
</defs>
</svg>
