<svg fill="none" xmlns="http://www.w3.org/2000/svg">
  <defs>
    <symbol id="viber" viewBox="0 0 81 86">
      <path d="M38.3626 0.00700404C31.517 0.100171 16.7873 1.23251 8.54768 8.83995C2.43107 14.9675 0.293816 24.0011 0.0448847 35.1883C-0.168485 46.3325 -0.417417 67.2592 19.6038 72.9603V81.632C19.6038 81.632 19.4687 85.1079 21.7446 85.8245C24.554 86.7204 26.1543 84.0364 28.8214 81.1698L33.8 75.5081C47.4913 76.6548 57.982 74.0067 59.1911 73.6125C61.9649 72.7167 77.6156 70.7064 80.176 49.7761C82.8076 28.1649 78.8958 14.5482 71.8546 8.38486L71.819 8.3777C69.6853 6.40686 61.1505 0.136004 42.0539 0.0643376C42.0539 0.0643376 40.6457 -0.0252461 38.3626 0.00700404V0.00700404ZM38.6009 6.08794C40.539 6.07719 41.7303 6.15961 41.7303 6.15961C57.8753 6.19544 65.5957 11.1046 67.4094 12.753C73.3482 17.8736 76.3994 30.1537 74.1661 48.1994C72.0324 65.6861 59.3369 66.797 56.9898 67.5495C55.9941 67.872 46.748 70.1653 35.1123 69.4128C35.1123 69.4128 26.4388 79.9514 23.7361 82.6748C23.3093 83.1406 22.8115 83.2839 22.4914 83.2123C22.0291 83.1048 21.8869 82.5314 21.9224 81.7431L21.9936 67.3416C5.02708 62.6116 6.0228 44.7594 6.20061 35.4427C6.41398 26.126 8.1565 18.4863 13.3129 13.3263C20.2724 6.98378 32.783 6.12377 38.5973 6.08794H38.6009ZM39.8811 15.4046C39.7412 15.4042 39.6025 15.4315 39.4731 15.4852C39.3437 15.5388 39.226 15.6176 39.1269 15.7172C39.0278 15.8167 38.9492 15.935 38.8955 16.0652C38.8419 16.1954 38.8142 16.3351 38.8142 16.4761C38.8142 16.7612 38.9266 17.0346 39.1267 17.2362C39.3268 17.4378 39.5981 17.5511 39.8811 17.5511C42.5249 17.5002 45.1525 17.9776 47.6123 18.9555C50.0721 19.9333 52.3153 21.3925 54.2124 23.2486C58.0887 27.0469 59.977 32.1353 60.0481 38.8003C60.0481 38.9415 60.0757 39.0813 60.1293 39.2117C60.1829 39.3421 60.2615 39.4606 60.3606 39.5604C60.4597 39.6603 60.5773 39.7394 60.7067 39.7935C60.8361 39.8475 60.9749 39.8753 61.115 39.8753V39.843C61.3979 39.843 61.6693 39.7298 61.8693 39.5282C62.0694 39.3266 62.1818 39.0532 62.1818 38.768C62.3137 35.6336 61.8111 32.505 60.7045 29.5726C59.5979 26.6402 57.9105 23.9655 55.7452 21.7113C51.5133 17.5546 46.1719 15.4046 39.8775 15.4046H39.8811ZM25.82 17.8771C25.0637 17.7686 24.2932 17.92 23.633 18.3071H23.5903C22.1322 19.1672 20.788 20.2422 19.5078 21.6755C18.5476 22.8222 18.0106 23.9652 17.8684 25.0761C17.7847 25.7276 17.8455 26.3897 18.0462 27.0147L18.1173 27.0505C19.2134 30.2975 20.6437 33.4201 22.3847 36.3672C24.6415 40.4946 27.4142 44.3133 30.635 47.73L30.7417 47.8733L30.884 47.9808L30.9907 48.0883L31.0973 48.1958C34.5014 51.4495 38.3013 54.2549 42.406 56.545C47.1001 59.125 49.9522 60.3434 51.6591 60.845V60.8809C52.157 61.0242 52.6122 61.0959 53.0745 61.0959C54.5315 60.9887 55.9111 60.3933 56.9934 59.4045C58.3803 58.1504 59.4827 56.76 60.3006 55.2908V55.255C61.1185 53.7142 60.834 52.2414 59.6605 51.2381C57.2954 49.1533 54.7348 47.3051 52.0147 45.7197C50.2011 44.7164 48.3519 45.3256 47.6051 46.3289L46.0048 48.3678C45.1869 49.3712 43.6933 49.2278 43.6933 49.2278L43.6506 49.2637C32.5554 46.397 29.6038 35.0772 29.6038 35.0772C29.6038 35.0772 29.4615 33.5364 30.4928 32.748L32.4843 31.1355C33.4444 30.3472 34.1201 28.4838 33.0888 26.6563C31.5175 23.9141 29.6832 21.3337 27.6123 18.9521C27.1618 18.3892 26.5259 18.0078 25.82 17.8771V17.8771ZM41.7267 21.0663C41.4438 21.0673 41.1728 21.1814 40.9734 21.3837C40.774 21.586 40.6625 21.8598 40.6634 22.1449C40.6644 22.43 40.7777 22.7031 40.9784 22.904C41.1792 23.1049 41.4509 23.2173 41.7338 23.2163C45.2927 23.2786 48.6817 24.7605 51.1577 27.3372C52.2748 28.5789 53.1335 30.0335 53.6832 31.6153C54.2329 33.197 54.4625 34.8737 54.3582 36.5464C54.3592 36.8309 54.472 37.1034 54.672 37.3042C54.8719 37.505 55.1428 37.6178 55.4251 37.6178L55.4607 37.6608C55.6011 37.6608 55.7401 37.6329 55.8698 37.5786C55.9994 37.5244 56.1172 37.4449 56.2163 37.3447C56.3154 37.2445 56.3939 37.1255 56.4473 36.9947C56.5007 36.8639 56.528 36.7237 56.5275 36.5822C56.6342 32.318 55.3184 28.7347 52.7224 25.868C50.1264 23.0013 46.4991 21.3888 41.8761 21.0663C41.8264 21.0628 41.7765 21.0628 41.7267 21.0663V21.0663ZM43.4693 26.8678C43.3266 26.8635 43.1845 26.8876 43.0511 26.9387C42.9177 26.9898 42.7955 27.0669 42.6917 27.1656C42.5878 27.2642 42.5043 27.3826 42.4458 27.5137C42.3873 27.6449 42.355 27.7865 42.3508 27.9302C42.3466 28.074 42.3706 28.2172 42.4213 28.3516C42.472 28.486 42.5485 28.6091 42.6464 28.7137C42.7443 28.8184 42.8617 28.9026 42.9919 28.9615C43.1221 29.0204 43.2626 29.0529 43.4052 29.0572C46.9259 29.2363 48.6328 31.028 48.8462 34.7189C48.8554 34.9977 48.9719 35.262 49.171 35.4559C49.37 35.6499 49.6361 35.7582 49.913 35.758H49.9486C50.0919 35.7535 50.2328 35.72 50.3629 35.6594C50.493 35.5988 50.6097 35.5125 50.706 35.4054C50.8022 35.2984 50.8761 35.1729 50.9232 35.0365C50.9702 34.9001 50.9895 34.7555 50.9799 34.6114C50.731 29.8097 48.135 27.1186 43.5119 26.8678C43.4977 26.8675 43.4835 26.8675 43.4693 26.8678V26.8678Z" fill="currentColor"/>
    </symbol>
  </defs>
</svg>
