<svg fill="none" xmlns="http://www.w3.org/2000/svg">
    <defs>
        <symbol id="question_mark" viewBox="0 0 22 22" fill="transparent">
            <path d="M8.09 8C8.3251 7.33167 8.78915 6.76811 9.39995 6.40913C10.0108 6.05016 10.7289 5.91894 11.4272 6.03871C12.1255 6.15849 12.7588 6.52152 13.2151 7.06353C13.6713 7.60553 13.9211 8.29152 13.92 9C13.92 11 10.92 12 10.92 12M11 16H11.01M21 11C21 16.5228 16.5228 21 11 21C5.47715 21 1 16.5228 1 11C1 5.47715 5.47715 1 11 1C16.5228 1 21 5.47715 21 11Z" stroke="currentColor" stroke-width="2" stroke-linecap="round" stroke-linejoin="round"/>
        </symbol>

        <symbol id="viber" viewBox="0 0 81 86">
            <path d="M38.3626 0.00700404C31.517 0.100171 16.7873 1.23251 8.54768 8.83995C2.43107 14.9675 0.293816 24.0011 0.0448847 35.1883C-0.168485 46.3325 -0.417417 67.2592 19.6038 72.9603V81.632C19.6038 81.632 19.4687 85.1079 21.7446 85.8245C24.554 86.7204 26.1543 84.0364 28.8214 81.1698L33.8 75.5081C47.4913 76.6548 57.982 74.0067 59.1911 73.6125C61.9649 72.7167 77.6156 70.7064 80.176 49.7761C82.8076 28.1649 78.8958 14.5482 71.8546 8.38486L71.819 8.3777C69.6853 6.40686 61.1505 0.136004 42.0539 0.0643376C42.0539 0.0643376 40.6457 -0.0252461 38.3626 0.00700404V0.00700404ZM38.6009 6.08794C40.539 6.07719 41.7303 6.15961 41.7303 6.15961C57.8753 6.19544 65.5957 11.1046 67.4094 12.753C73.3482 17.8736 76.3994 30.1537 74.1661 48.1994C72.0324 65.6861 59.3369 66.797 56.9898 67.5495C55.9941 67.872 46.748 70.1653 35.1123 69.4128C35.1123 69.4128 26.4388 79.9514 23.7361 82.6748C23.3093 83.1406 22.8115 83.2839 22.4914 83.2123C22.0291 83.1048 21.8869 82.5314 21.9224 81.7431L21.9936 67.3416C5.02708 62.6116 6.0228 44.7594 6.20061 35.4427C6.41398 26.126 8.1565 18.4863 13.3129 13.3263C20.2724 6.98378 32.783 6.12377 38.5973 6.08794H38.6009ZM39.8811 15.4046C39.7412 15.4042 39.6025 15.4315 39.4731 15.4852C39.3437 15.5388 39.226 15.6176 39.1269 15.7172C39.0278 15.8167 38.9492 15.935 38.8955 16.0652C38.8419 16.1954 38.8142 16.3351 38.8142 16.4761C38.8142 16.7612 38.9266 17.0346 39.1267 17.2362C39.3268 17.4378 39.5981 17.5511 39.8811 17.5511C42.5249 17.5002 45.1525 17.9776 47.6123 18.9555C50.0721 19.9333 52.3153 21.3925 54.2124 23.2486C58.0887 27.0469 59.977 32.1353 60.0481 38.8003C60.0481 38.9415 60.0757 39.0813 60.1293 39.2117C60.1829 39.3421 60.2615 39.4606 60.3606 39.5604C60.4597 39.6603 60.5773 39.7394 60.7067 39.7935C60.8361 39.8475 60.9749 39.8753 61.115 39.8753V39.843C61.3979 39.843 61.6693 39.7298 61.8693 39.5282C62.0694 39.3266 62.1818 39.0532 62.1818 38.768C62.3137 35.6336 61.8111 32.505 60.7045 29.5726C59.5979 26.6402 57.9105 23.9655 55.7452 21.7113C51.5133 17.5546 46.1719 15.4046 39.8775 15.4046H39.8811ZM25.82 17.8771C25.0637 17.7686 24.2932 17.92 23.633 18.3071H23.5903C22.1322 19.1672 20.788 20.2422 19.5078 21.6755C18.5476 22.8222 18.0106 23.9652 17.8684 25.0761C17.7847 25.7276 17.8455 26.3897 18.0462 27.0147L18.1173 27.0505C19.2134 30.2975 20.6437 33.4201 22.3847 36.3672C24.6415 40.4946 27.4142 44.3133 30.635 47.73L30.7417 47.8733L30.884 47.9808L30.9907 48.0883L31.0973 48.1958C34.5014 51.4495 38.3013 54.2549 42.406 56.545C47.1001 59.125 49.9522 60.3434 51.6591 60.845V60.8809C52.157 61.0242 52.6122 61.0959 53.0745 61.0959C54.5315 60.9887 55.9111 60.3933 56.9934 59.4045C58.3803 58.1504 59.4827 56.76 60.3006 55.2908V55.255C61.1185 53.7142 60.834 52.2414 59.6605 51.2381C57.2954 49.1533 54.7348 47.3051 52.0147 45.7197C50.2011 44.7164 48.3519 45.3256 47.6051 46.3289L46.0048 48.3678C45.1869 49.3712 43.6933 49.2278 43.6933 49.2278L43.6506 49.2637C32.5554 46.397 29.6038 35.0772 29.6038 35.0772C29.6038 35.0772 29.4615 33.5364 30.4928 32.748L32.4843 31.1355C33.4444 30.3472 34.1201 28.4838 33.0888 26.6563C31.5175 23.9141 29.6832 21.3337 27.6123 18.9521C27.1618 18.3892 26.5259 18.0078 25.82 17.8771V17.8771ZM41.7267 21.0663C41.4438 21.0673 41.1728 21.1814 40.9734 21.3837C40.774 21.586 40.6625 21.8598 40.6634 22.1449C40.6644 22.43 40.7777 22.7031 40.9784 22.904C41.1792 23.1049 41.4509 23.2173 41.7338 23.2163C45.2927 23.2786 48.6817 24.7605 51.1577 27.3372C52.2748 28.5789 53.1335 30.0335 53.6832 31.6153C54.2329 33.197 54.4625 34.8737 54.3582 36.5464C54.3592 36.8309 54.472 37.1034 54.672 37.3042C54.8719 37.505 55.1428 37.6178 55.4251 37.6178L55.4607 37.6608C55.6011 37.6608 55.7401 37.6329 55.8698 37.5786C55.9994 37.5244 56.1172 37.4449 56.2163 37.3447C56.3154 37.2445 56.3939 37.1255 56.4473 36.9947C56.5007 36.8639 56.528 36.7237 56.5275 36.5822C56.6342 32.318 55.3184 28.7347 52.7224 25.868C50.1264 23.0013 46.4991 21.3888 41.8761 21.0663C41.8264 21.0628 41.7765 21.0628 41.7267 21.0663V21.0663ZM43.4693 26.8678C43.3266 26.8635 43.1845 26.8876 43.0511 26.9387C42.9177 26.9898 42.7955 27.0669 42.6917 27.1656C42.5878 27.2642 42.5043 27.3826 42.4458 27.5137C42.3873 27.6449 42.355 27.7865 42.3508 27.9302C42.3466 28.074 42.3706 28.2172 42.4213 28.3516C42.472 28.486 42.5485 28.6091 42.6464 28.7137C42.7443 28.8184 42.8617 28.9026 42.9919 28.9615C43.1221 29.0204 43.2626 29.0529 43.4052 29.0572C46.9259 29.2363 48.6328 31.028 48.8462 34.7189C48.8554 34.9977 48.9719 35.262 49.171 35.4559C49.37 35.6499 49.6361 35.7582 49.913 35.758H49.9486C50.0919 35.7535 50.2328 35.72 50.3629 35.6594C50.493 35.5988 50.6097 35.5125 50.706 35.4054C50.8022 35.2984 50.8761 35.1729 50.9232 35.0365C50.9702 34.9001 50.9895 34.7555 50.9799 34.6114C50.731 29.8097 48.135 27.1186 43.5119 26.8678C43.4977 26.8675 43.4835 26.8675 43.4693 26.8678V26.8678Z" fill="currentColor"/>
        </symbol>

        <symbol id="telegram" viewBox="0 0 82 82">
            <path d="M40.98 81.96C63.6126 81.96 81.96 63.6126 81.96 40.98C81.96 18.3474 63.6126 0 40.98 0C18.3474 0 0 18.3474 0 40.98C0 63.6126 18.3474 81.96 40.98 81.96ZM34.1646 49.3152L53.1663 32.1676C54.0003 31.4274 52.9842 31.0665 51.8771 31.7378L28.4252 46.5333L18.2953 43.3716C16.1077 42.7018 16.092 41.1986 18.7865 40.1178L58.2604 24.8968C60.0633 24.0783 61.8034 25.3298 61.1152 28.0892L54.3927 59.7678C53.9233 62.0189 52.5632 62.5573 50.6786 61.5175L40.4382 53.9517L35.516 58.738C34.9442 59.294 34.4915 59.7625 33.467 59.7625L34.1643 49.315L34.1646 49.3152Z" fill="currentColor"/>
        </symbol>

        <symbol id="mts" viewBox="0 0 69 86">
            <path d="M34.5 5C22.7 5 5 27.8053 5 48.9827C5 70.16 16.8 81.7 34.5 81.7C52.2 81.7 64 70.16 64 48.9827C64 27.8053 46.3 5 34.5 5Z" stroke="currentColor" stroke-width="8.196" stroke-miterlimit="10" fill="transparent"/>
        </symbol>

        <symbol id="mail" viewBox="0 0 84 67">
            <path d="M72.3194 3H11.6649C6.87942 3 3 6.87942 3 11.6649V54.9896C3 59.7751 6.87942 63.6545 11.6649 63.6545H72.3194C77.1049 63.6545 80.9844 59.7751 80.9844 54.9896V11.6649C80.9844 6.87942 77.1049 3 72.3194 3Z" stroke="currentColor" stroke-width="6" stroke-linecap="round" stroke-linejoin="round" fill="none"/>
            <path d="M3.01562 12.2922L42.0078 38.287L81 12.2922" stroke="currentColor" stroke-width="6" stroke-linecap="round" stroke-linejoin="round" fill="transparent"/>
        </symbol>

        <symbol id="a1" viewBox="0 0 52 37">
            <path d="M22.856 22.144L17.048 7.36L11.192 22.144H22.856ZM33.992 36.256H28.424L24.776 27.088H9.224L5.528 36.256H0.00800008L14.6 0.447997H19.832L33.992 36.256ZM51.3234 36.256H46.1394V7.12L41.6274 10.912L38.6034 7.6L47.0034 0.447997H51.3234V36.256Z" fill="currentColor"/>
        </symbol>

        <symbol id="minus" viewBox="0 0 39 39">
            <path d="M1.99998 19.5H37" stroke="currentColor" stroke-width="4" stroke-linecap="round" stroke-linejoin="round"/>
        </symbol>

        <symbol id="minus_small" viewBox="0 0 28 9">
            <path d="M4 4.64325H23.5" stroke="currentColor" stroke-width="4" stroke-linecap="round" stroke-linejoin="round"/>
        </symbol>

        <symbol id="plus_small" viewBox="0 0 27 27">
            <path d="M13.913 4.67072V22.6158M4 13.6433H23" stroke="currentColor" stroke-width="4" stroke-linecap="round" stroke-linejoin="round"/>
        </symbol>


        <symbol id="plus" viewBox="0 0 39 39">
            <path d="M19.5 2V37" stroke="currentColor" stroke-width="4" stroke-linecap="round" stroke-linejoin="round"/>
            <path d="M1.99999 19.5H37" stroke="currentColor" stroke-width="4" stroke-linecap="round" stroke-linejoin="round"/>
        </symbol>

        <symbol id="cancel" viewBox="0 0 49 49">
            <path d="M2.55713 2.44286L42.5431 42.4289M3.99301 40.993L41.1071 3.8789" stroke="currentColor" stroke-width="4" stroke-linecap="round" stroke-linejoin="round"/>
        </symbol>

        <symbol id="copy" width="100%" height="100%" viewBox="0 0 30 30">
            <rect fill="none"/>
            <path d="M25 11.25H13.75C12.3693 11.25 11.25 12.3693 11.25 13.75V25C11.25 26.3807 12.3693 27.5 13.75 27.5H25C26.3807 27.5 27.5 26.3807 27.5 25V13.75C27.5 12.3693 26.3807 11.25 25 11.25Z" stroke="currentColor" stroke-width="3" stroke-linecap="round" stroke-linejoin="round" fill="transparent"/>
            <path d="M6.25 18.75H5C4.33696 18.75 3.70107 18.4866 3.23223 18.0178C2.76339 17.5489 2.5 16.913 2.5 16.25V5C2.5 4.33696 2.76339 3.70107 3.23223 3.23223C3.70107 2.76339 4.33696 2.5 5 2.5H16.25C16.913 2.5 17.5489 2.76339 18.0178 3.23223C18.4866 3.70107 18.75 4.33696 18.75 5V6.25" stroke="currentColor" stroke-width="3" stroke-linecap="round" stroke-linejoin="round"
            fill="transparent"/>
        </symbol>

        <symbol id="catalog_small" viewBox="0 0 36 36">
            <path d="M19.125 27H23.625V31.5H19.125V27Z" fill="currentColor" stroke="currentColor" stroke-width="2"/>
            <path d="M27 27H31.5V31.5H27V27Z" fill="currentColor" stroke="currentColor" stroke-width="2"/>
            <path d="M19.125 19.125H23.625V23.625H19.125V19.125Z" fill="currentColor" stroke="currentColor" stroke-width="2"/>
            <path d="M27 19.125H31.5V23.625H27V19.125Z" fill="currentColor" stroke="currentColor" stroke-width="2"/>
            <path d="M31.5 12.375H24.75V7.875C24.75 5.9625 23.2875 4.5 21.375 4.5H14.625C12.7125 4.5 11.25 5.9625 11.25 7.875V12.375H4.5C3.825 12.375 3.375 12.825 3.375 13.5V13.725L5.5125 27.3375C5.625 28.4625 6.6375 29.25 7.7625 29.25H16.875V27H7.7625L5.85 14.625H31.5V12.375ZM13.5 7.875C13.5 7.2 13.95 6.75 14.625 6.75H21.375C22.05 6.75 22.5 7.2 22.5 7.875V12.375H13.5V7.875Z" fill="currentColor"/>
        </symbol>

        <symbol id="human" viewBox="0 0 43 47" fill="none">
            <path d="M6.61538 6.71428C6.61544 10.138 7.76084 13.4603 9.86404 16.1372C11.9672 18.814 14.9036 20.6868 18.1923 21.4488V40.2857H24.8077L24.811 21.4454C28.0986 20.6829 31.0337 18.8103 33.1362 16.1343C35.2387 13.4582 36.384 10.137 36.3846 6.71428H43C43.0007 10.7072 41.922 14.6239 39.8813 18.0376C37.8406 21.4514 34.9161 24.2314 31.4264 26.0749L31.4231 47H11.5769V26.0783C8.08607 24.235 5.16059 21.4546 3.11924 18.0402C1.07789 14.6257 -0.00103967 10.7082 7.51747e-07 6.71428H6.61538ZM21.5 0C23.6931 0 25.7964 0.884244 27.3472 2.45821C28.898 4.03218 29.7692 6.16693 29.7692 8.39286C29.7692 10.6188 28.898 12.7535 27.3472 14.3275C25.7964 15.9015 23.6931 16.7857 21.5 16.7857C19.3069 16.7857 17.2036 15.9015 15.6528 14.3275C14.102 12.7535 13.2308 10.6188 13.2308 8.39286C13.2308 6.16693 14.102 4.03218 15.6528 2.45821C17.2036 0.884244 19.3069 0 21.5 0Z" fill="currentColor"/>
        </symbol>

        <symbol id="delivery" viewBox="0 0 75 52">
            <path d="M60.8333 15.8778L62.6847 14.1931C62.2107 13.6693 61.5383 13.3708 60.8333 13.3708V15.8778ZM72.5 28.7709H75C75 28.1482 74.7687 27.5475 74.3513 27.0862L72.5 28.7709ZM72.5 42.6194L72.5003 45.1264C73.881 45.1261 75 44.0039 75 42.6194H72.5ZM49.1667 15.8778V13.3708C47.786 13.3708 46.6667 14.4933 46.6667 15.8778H49.1667ZM2.50001 0C1.11928 0 0 1.12244 0 2.50702C0 3.8916 1.11928 5.01404 2.50001 5.01404V0ZM49.1667 2.50702H51.6667C51.6667 1.12244 50.5474 0 49.1667 0V2.50702ZM12.5007 40.1124C11.1199 40.112 10.0004 41.2342 10 42.6187C9.9996 44.0033 11.1186 45.1261 12.4993 45.1264L12.5007 40.1124ZM14.1667 25.0702C15.5474 25.0702 16.6667 23.9478 16.6667 22.5632C16.6667 21.1787 15.5474 20.0562 14.1667 20.0562V25.0702ZM9.16667 20.0562C7.78594 20.0562 6.66667 21.1787 6.66667 22.5632C6.66667 23.9478 7.78594 25.0702 9.16667 25.0702V20.0562ZM14.1667 35.0983C15.5474 35.0983 16.6667 33.9758 16.6667 32.5913C16.6667 31.2067 15.5474 30.0843 14.1667 30.0843V35.0983ZM12.5 30.0843C11.1193 30.0843 10 31.2067 10 32.5913C10 33.9758 11.1193 35.0983 12.5 35.0983V30.0843ZM14.1667 15.0422C15.5474 15.0422 16.6667 13.9197 16.6667 12.5351C16.6667 11.1505 15.5474 10.0281 14.1667 10.0281V15.0422ZM5.83334 10.0281C4.45261 10.0281 3.33334 11.1505 3.33334 12.5351C3.33334 13.9197 4.45261 15.0422 5.83334 15.0422V10.0281ZM58.982 17.5625L70.6487 30.4556L74.3513 27.0862L62.6847 14.1931L58.982 17.5625ZM70 28.7709V42.6194H75V28.7709H70ZM72.4997 40.1124L65.5487 40.1134L65.5493 45.1274L72.5003 45.1264L72.4997 40.1124ZM67.9063 41.7854C66.8783 38.8669 64.1033 36.7697 60.8333 36.7697V41.7837C61.918 41.7837 62.8477 42.478 63.1917 43.4554L67.9063 41.7854ZM60.8333 36.7697C57.5634 36.7697 54.788 38.8669 53.76 41.7854L58.4747 43.4554C58.819 42.478 59.7483 41.7837 60.8333 41.7837V36.7697ZM56.1177 40.1134L49.167 40.1124L49.1664 45.1264L56.117 45.1274L56.1177 40.1134ZM51.6667 42.6194V15.8778H46.6667V42.6194H51.6667ZM49.1667 18.3848H60.8333V13.3708H49.1667V18.3848ZM2.50001 5.01404H49.1667V0H2.50001V5.01404ZM46.6667 2.50702V42.6194H51.6667V2.50702H46.6667ZM49.167 40.1124L25.5491 40.1134L25.5493 45.1274L49.1664 45.1264L49.167 40.1124ZM27.9064 41.7854C26.8784 38.8669 24.1033 36.7697 20.8333 36.7697V41.7837C21.9181 41.7837 22.8476 42.478 23.1919 43.4554L27.9064 41.7854ZM20.8333 36.7697C17.5633 36.7697 14.7882 38.8669 13.7602 41.7854L18.4748 43.4554C18.819 42.478 19.7485 41.7837 20.8333 41.7837V36.7697ZM16.1182 40.1134L12.5007 40.1124L12.4993 45.1264L16.1168 45.1274L16.1182 40.1134ZM60.8333 41.7837C62.214 41.7837 63.3333 42.9062 63.3333 44.2907H68.3333C68.3333 40.1371 64.9753 36.7697 60.8333 36.7697V41.7837ZM63.3333 44.2907C63.3333 45.6753 62.214 46.7977 60.8333 46.7977V51.8118C64.9753 51.8118 68.3333 48.4443 68.3333 44.2907H63.3333ZM60.8333 46.7977C59.4527 46.7977 58.3334 45.6753 58.3334 44.2907H53.3334C53.3334 48.4443 56.691 51.8118 60.8333 51.8118V46.7977ZM58.3334 44.2907C58.3334 42.9062 59.4527 41.7837 60.8333 41.7837V36.7697C56.691 36.7697 53.3334 40.1371 53.3334 44.2907H58.3334ZM20.8333 41.7837C22.214 41.7837 23.3333 42.9062 23.3333 44.2907H28.3333C28.3333 40.1371 24.9755 36.7697 20.8333 36.7697V41.7837ZM23.3333 44.2907C23.3333 45.6753 22.214 46.7977 20.8333 46.7977V51.8118C24.9755 51.8118 28.3333 48.4443 28.3333 44.2907H23.3333ZM20.8333 46.7977C19.4526 46.7977 18.3333 45.6753 18.3333 44.2907H13.3333C13.3333 48.4443 16.6912 51.8118 20.8333 51.8118V46.7977ZM18.3333 44.2907C18.3333 42.9062 19.4526 41.7837 20.8333 41.7837V36.7697C16.6912 36.7697 13.3333 40.1371 13.3333 44.2907H18.3333ZM14.1667 20.0562H9.16667V25.0702H14.1667V20.0562ZM14.1667 30.0843H12.5V35.0983H14.1667V30.0843ZM14.1667 10.0281H5.83334V15.0422H14.1667V10.0281ZM53.76 41.7854C53.483 42.5722 53.3334 43.4166 53.3334 44.2907H58.3334C58.3334 43.9932 58.3837 43.7134 58.4747 43.4554L53.76 41.7854ZM68.3333 44.2907C68.3333 43.4166 68.1837 42.5722 67.9063 41.7854L63.1917 43.4554C63.2827 43.7134 63.3333 43.9932 63.3333 44.2907H68.3333ZM13.7602 41.7854C13.483 42.5722 13.3333 43.4166 13.3333 44.2907H18.3333C18.3333 43.9932 18.3839 43.7134 18.4748 43.4554L13.7602 41.7854ZM28.3333 44.2907C28.3333 43.4166 28.1836 42.5722 27.9064 41.7854L23.1919 43.4554C23.2828 43.7134 23.3333 43.9932 23.3333 44.2907H28.3333Z" fill="currentColor"/>
        </symbol>
    </defs>
</svg>