<svg fill="none" xmlns="http://www.w3.org/2000/svg">
  <defs>
    <symbol id="light" viewBox="0 0 36 36">
      <path d="M17 11C19.4853 11 21.5 8.98528 21.5 6.5C21.5 4.01472 19.4853 2 17 2C14.5147 2 12.5 4.01472 12.5 6.5C12.5 8.98528 14.5147 11 17 11ZM17 11V32M17 32C13.0218 32 9.20644 30.4196 6.3934 27.6066C3.58035 24.7936 2 20.9782 2 17H6.5M17 32C20.9782 32 24.7936 30.4196 27.6066 27.6066C30.4196 24.7936 32 20.9782 32 17H27.5" stroke="#FCFCFC" stroke-width="4" stroke-linecap="round" stroke-linejoin="round" fill="transparent"/>
    </symbol>

    <symbol id="soft" fill="none" viewbox="0 0 40 40">
      <path d="M38 38.5C38 38.5 19.7452 28.6294 9 9" stroke="currentColor" stroke-width="3" stroke-linecap="round" stroke-linejoin="round"/>
      <path d="M29.9823 36.9511C19.1753 37.3683 14.0147 30.7185 14.0147 30.7185" stroke="currentColor" stroke-width="3" stroke-linecap="round" stroke-linejoin="round"/>
      <path d="M25.7248 26.2448C25.2181 19.728 27.6413 16.5723 27.6413 16.5723C35.6436 25.3163 35.2557 31.2115 34.599 33.5532" stroke="currentColor" stroke-width="3" stroke-linecap="round" stroke-linejoin="round"/>
      <path d="M22.5417 30.7185C18.0275 29.6193 13.8683 27.3866 10.4576 24.2315C3.14554 17.5118 2.14918 7.92754 2 3.99998C1.99143 3.74113 2 2.99997 2.5 2.50001C2.5 2.50001 2.80295 2.1681 3 2.00001C3.19705 1.83193 3.74954 1.56591 4 1.49997C4.25046 1.43403 5.24573 1.45073 5.5 1.5C20.8884 4.53579 24.3589 17.2283 24.3589 17.2283" stroke="currentColor" stroke-width="3" stroke-linecap="round" stroke-linejoin="round"/>
    </symbol>

    <symbol id="fit" fill="none" viewBox="0 0 33 33">
<path fill-rule="evenodd" clip-rule="evenodd" d="M3.76924 0.0926145C4.35402 -0.15685 5.03032 0.114993 5.27977 0.699768L4.22131 1.1513C5.27977 0.699768 5.27969 0.699553 5.27977 0.699768L5.28086 0.702332L5.28307 0.707504L5.29073 0.725646L5.3186 0.792368C5.34258 0.850126 5.3771 0.934099 5.42064 1.04223C5.50773 1.25847 5.63104 1.57155 5.7785 1.96493C6.07318 2.75106 6.46548 3.86112 6.85792 5.16206C7.63668 7.74363 8.44186 11.1596 8.44186 14.3076C8.44186 15.2294 8.30773 16.0819 8.08371 16.884H24.9162C24.6923 16.0819 24.5581 15.2294 24.5581 14.3076C24.5581 11.1596 25.3633 7.74363 26.1421 5.16206C26.5345 3.86112 26.9268 2.75106 27.2215 1.96493C27.369 1.57155 27.4922 1.25847 27.5794 1.04223C27.6228 0.934099 27.6574 0.850126 27.6815 0.792368L27.7093 0.725646L27.7169 0.707504L27.7191 0.702332L27.7198 0.70072C27.7198 0.700505 27.7202 0.699768 28.7791 1.15145L27.7198 0.70072C27.9693 0.115929 28.646 -0.15685 29.2308 0.0926145C29.8154 0.342048 30.0873 1.01818 29.838 1.60292L29.8368 1.60589L29.8312 1.61892L29.8077 1.67509C29.7867 1.72565 29.7554 1.80211 29.715 1.90238C29.6342 2.10296 29.5177 2.39864 29.3774 2.77303C29.0965 3.52242 28.7214 4.58388 28.3462 5.82699C27.5901 8.3335 26.8605 11.4955 26.8605 14.3076C26.8605 15.9329 27.4103 17.3273 28.2511 18.8451C28.5404 19.3673 28.8796 19.9254 29.2397 20.5179C30.0286 21.8155 30.9172 23.2773 31.5976 24.8835C32.416 26.8153 33 29.0624 33 31.8491C33 32.4849 32.4846 33.0003 31.8488 33.0003C31.2131 33.0003 30.6977 32.4849 30.6977 31.8491C30.6977 29.5612 30.2526 27.7116 29.6099 26.1028C21.3304 26.3283 18.16 30.5093 17.5921 32.2132C17.4354 32.6832 16.9955 33.0003 16.5 33.0003C16.0045 33.0003 15.5646 32.6832 15.4079 32.2132C14.84 30.5093 11.6696 26.3283 3.39011 26.1028C2.74738 27.7116 2.30233 29.5612 2.30233 31.8491C2.30233 32.4849 1.78693 33.0003 1.15116 33.0003C0.515399 33.0003 0 32.4849 0 31.8491C0 29.0624 0.584008 26.8153 1.40239 24.8835C2.08287 23.2773 2.97143 21.8155 3.76025 20.5179C4.12033 19.9254 4.45962 19.3673 4.74885 18.8451C5.58968 17.3273 6.13953 15.9329 6.13953 14.3076C6.13953 11.4955 5.40982 8.3335 4.65371 5.82699C4.2787 4.58388 3.90356 3.52242 3.62266 2.77303C3.48233 2.39864 3.36582 2.10296 3.28502 1.90238C3.24464 1.80211 3.2132 1.72565 3.19221 1.67509L3.16875 1.61892L3.16324 1.60589L3.16212 1.60322C2.91283 1.01849 3.18453 0.342048 3.76924 0.0926145ZM4.46878 23.8487C10.9308 24.2765 14.7046 27.0015 16.5 29.4509C18.2954 27.0015 22.0692 24.2765 28.5312 23.8487C28.1636 23.1818 27.7782 22.5499 27.3895 21.9128C27.004 21.2807 26.6152 20.6433 26.2372 19.9609C26.095 19.7044 25.9569 19.4445 25.8247 19.1807C25.7868 19.1844 25.7483 19.1864 25.7093 19.1864H7.2907C7.25174 19.1864 7.21323 19.1844 7.17527 19.1807C7.04312 19.4445 6.9049 19.7044 6.76282 19.9609C6.38479 20.6433 5.99601 21.2807 5.61049 21.9128C5.22183 22.5499 4.83646 23.1818 4.46878 23.8487Z" fill="currentColor"/>
    </symbol>

    <symbol id="textile" viewBox="0 0 33 33">
      <path d="M30.9306 28.8131L32.9519 26.785L30.9031 24.7362L33 22.6394L30.9306 20.57L32.9794 18.5144L31.7488 17.2906L28.8956 20.1369L26.8469 18.0881L24.7775 20.1644L22.6806 18.0675L20.6319 20.1162L18.6038 18.0881L16.5756 20.1162L12.8837 16.4244L13.6744 15.6956L14.9325 14.4375L12.87 12.375L14.8363 10.4156L12.8081 8.3875L14.9256 6.27L12.8081 4.1525L15.675 1.28562L14.3962 0L12.2856 2.1175L10.1681 0L8.14 2.02812L6.17375 0.0618751L4.11125 2.12438L2.04875 0.0618751L2.09 0.11L0.0412503 2.15875L2.06938 4.18688L0.0481248 6.215L2.09688 8.26375L0 10.3606L2.06938 12.43L0.0206248 14.4856L2.06938 16.5344L0.00687516 18.6037L2.1175 20.7144L0 22.8388L2.02812 24.86L0.0687503 26.8263L2.12438 28.8888L0.0618751 30.9513L0.11 30.9031L2.15875 32.9587L4.18688 30.9306L6.215 32.9519L8.26375 30.9031L10.3606 33L12.43 30.9306L14.4856 32.9794L16.5344 30.9306L18.6038 32.9931L20.7144 30.8825L22.8388 33L24.86 30.9719L26.8263 32.9381L28.8888 30.8756L30.9513 32.9381L30.9031 32.89L32.9587 30.8413L30.9306 28.8131Z" fill="currentColor"/>
      <path d="M16.4862 2.08316L14.4169 4.15254L16.5344 6.27004L14.4169 8.38754L16.445 10.4157L14.4787 12.375L16.5412 14.4375L14.4787 16.5L14.5269 16.4588L16.5756 18.5075L18.6037 16.4794L20.6319 18.5007L22.6806 16.4519L24.7775 18.5488L26.8469 16.4794L28.8956 18.5282L30.9512 16.4794L16.4862 2.08316Z" fill="currentColor"/>
    </symbol>

    <symbol id="anatomic" viewBox="0 0 33 27">
      <path d="M23.0241 8.25H33V13.3039C30.2841 13.5736 27.652 14.395 25.2648 15.7179C23.7016 13.5503 22.9125 10.9201 23.0241 8.25ZM31.35 0H1.65C1.21239 0 0.792709 0.173839 0.483274 0.483274C0.173839 0.792709 0 1.21239 0 1.65V4.95H33V1.65C33 1.21239 32.8262 0.792709 32.5167 0.483274C32.2073 0.173839 31.7876 0 31.35 0ZM9.98085 8.25H0V13.3039C2.71639 13.5735 5.34912 14.3949 7.73685 15.7179C9.3079 13.554 10.099 10.9214 9.98085 8.25ZM19.7241 8.25H13.2759C13.2759 10.9791 12.7149 16.0693 8.9529 19.107C9.77208 20.1104 10.4168 21.2444 10.8603 22.4615C11.2393 23.5921 11.9591 24.5777 12.9207 25.2829C13.8824 25.9881 15.0387 26.3784 16.231 26.4H16.7673C17.9599 26.3787 19.1166 25.9886 20.0786 25.2834C21.0406 24.5782 21.7606 23.5924 22.1397 22.4615C22.5835 21.244 23.2283 20.1096 24.0471 19.1054C20.2851 16.0677 19.7258 10.9791 19.7241 8.25Z" fill="currentColor"/>
    </symbol>

    <symbol id="ruler" viewBox="0 0 40 43" fill="none">
      <path d="M33.6647 0H25.2176C22.0651 0 19.4592 2.71534 18.9663 5.81169C18.8744 6.3876 19.3551 6.86327 19.9381 6.86327H29.4411C30.3069 6.86327 31.0249 7.58128 31.0249 8.44711C31.0249 9.31293 30.3069 10.0309 29.4411 10.0309H19.9381C19.3551 10.0309 18.8822 10.5037 18.8822 11.0868V14.2545C18.8822 14.8376 19.3551 15.3104 19.9381 15.3104H24.8163C25.6822 15.3104 26.4002 16.0284 26.4002 16.8942C26.4002 17.76 25.6822 18.478 24.8163 18.478H19.9381C19.3551 18.478 18.8822 18.9509 18.8822 19.5339V22.6066C18.8822 23.1856 19.3485 23.6565 19.9276 23.6622L29.4411 23.7575C30.3281 23.7575 31.0249 24.4755 31.0249 25.3624C31.0038 26.2283 30.3069 26.9252 29.4411 26.9252C29.42 26.9252 29.42 26.9252 29.42 26.9252L19.9487 26.8303C19.3614 26.8244 18.8822 27.2987 18.8822 27.886V31.1487C18.8822 31.7318 19.3551 32.2046 19.9381 32.2046H27.1182C28.0051 32.2046 28.702 32.9226 28.702 33.7884C28.702 34.6543 28.0051 35.3723 27.1182 35.3723H19.9381C19.3551 35.3723 18.8744 35.848 18.9663 36.4239C19.4592 39.5202 22.0651 42.2355 25.2176 42.2355H33.6647C37.1491 42.2355 40 39.4058 40 35.9002V6.33533C40 2.82978 37.1491 0 33.6647 0Z" fill="currentColor"/>
      <path d="M12.4806 6.22974V7.91916C12.4806 8.50231 12.0079 8.97505 11.4247 8.97505H1.05589C0.472721 8.97505 0 8.50231 0 7.91916V6.22974C0 2.80866 2.80866 0 6.25086 0C9.67194 0 12.4806 2.80866 12.4806 6.22974Z" fill="currentColor"/>
      <path d="M0 33.5984C0 34.5487 0.401238 36.0058 0.908064 36.8083L2.6186 39.6803C4.62479 43.0169 7.87693 43.0169 9.862 39.6803L11.5937 36.8083C12.0794 36.0058 12.4806 34.5487 12.4806 33.5984V13.1986C12.4806 12.6155 12.0079 12.1427 11.4247 12.1427H1.05589C0.472721 12.1427 0 12.6155 0 13.1986V33.5984Z" fill="currentColor"/>
    </symbol>
  </defs>
</svg>
