<svg fill="none" xmlns="http://www.w3.org/2000/svg">
  <defs>
      <symbol id="logo" viewBox="0 0 78 26">
        <path d="M8.28 5.34C8.8 5.34 9.18 5.38667 9.42 5.48C9.67333 5.56 9.85333 5.7 9.96 5.9C10.1067 6.20667 10.18 6.62 10.18 7.14V14.88C10.18 16.28 9.67333 17.52 8.66 18.6C7.64667 19.6667 6.35333 20.2 4.78 20.2C3.9 20.2 3.12 20.0067 2.44 19.62C1.82667 19.2867 1.4 18.9867 1.16 18.72L1 18.56C0.533333 18.0667 0.3 17.6467 0.3 17.3C0.3 16.94 0.533333 16.52 1 16.04C1.46667 15.56 1.88 15.32 2.24 15.32C2.6 15.32 3 15.54 3.44 15.98C3.88 16.42 4.35333 16.64 4.86 16.64C5.38 16.64 5.80667 16.4667 6.14 16.12C6.47333 15.7733 6.64 15.3133 6.64 14.74V7.26C6.64 6.46 6.77333 5.94667 7.04 5.72C7.34667 5.46667 7.76 5.34 8.28 5.34ZM16.4566 19.96C15.1099 19.96 13.9899 19.4533 13.0966 18.44C12.2166 17.4133 11.7766 16.1667 11.7766 14.7V11.2C11.7766 10.88 11.7832 10.6467 11.7966 10.5C11.8232 10.3533 11.8832 10.18 11.9766 9.98C12.1632 9.62 12.6832 9.44 13.5366 9.44C14.4699 9.44 15.0166 9.69333 15.1766 10.2C15.2566 10.4133 15.2966 10.7533 15.2966 11.22V14.72C15.2966 15.2667 15.4499 15.6933 15.7566 16C16.0766 16.3067 16.4966 16.46 17.0166 16.46C17.5499 16.46 17.9766 16.3 18.2966 15.98C18.6299 15.66 18.7966 15.24 18.7966 14.72V11.18C18.7966 10.8733 18.8032 10.6467 18.8166 10.5C18.8432 10.34 18.9099 10.16 19.0166 9.96C19.1899 9.61333 19.7032 9.44 20.5566 9.44C21.3966 9.44 21.9099 9.62 22.0966 9.98C22.1899 10.18 22.2432 10.36 22.2566 10.52C22.2832 10.6667 22.2966 10.8933 22.2966 11.2V18.28C22.2966 18.5733 22.2832 18.8 22.2566 18.96C22.2432 19.1067 22.1832 19.2733 22.0766 19.46C21.8766 19.8067 21.3632 19.98 20.5366 19.98C19.7232 19.98 19.2232 19.82 19.0366 19.5C18.9032 19.2733 18.8366 19 18.8366 18.68C18.7832 18.7733 18.6632 18.9067 18.4766 19.08C18.2899 19.2533 18.1099 19.4 17.9366 19.52C17.4832 19.8133 16.9899 19.96 16.4566 19.96ZM23.9855 19.06C23.7321 18.9 23.6055 18.6467 23.6055 18.3C23.6055 17.9533 23.8588 17.4267 24.3655 16.72C24.5121 16.4933 24.7455 16.38 25.0655 16.38C25.3988 16.38 25.8455 16.5467 26.4055 16.88C26.9655 17.2 27.4721 17.36 27.9255 17.36C28.7388 17.36 29.1455 17.2 29.1455 16.88C29.1455 16.6267 28.6988 16.44 27.8055 16.32C26.9655 16.2 26.1321 15.8867 25.3055 15.38C24.9188 15.14 24.5988 14.7667 24.3455 14.26C24.0921 13.74 23.9655 13.1267 23.9655 12.42C23.9655 10.3133 25.4121 9.26 28.3055 9.26C29.2521 9.26 30.2255 9.48667 31.2255 9.94C31.6921 10.1533 31.9255 10.42 31.9255 10.74C31.9255 11.06 31.7788 11.4533 31.4855 11.92C31.1921 12.3867 30.8921 12.62 30.5855 12.62C30.4255 12.62 30.1255 12.52 29.6855 12.32C29.2588 12.12 28.7921 12.02 28.2855 12.02C27.4988 12.02 27.1055 12.1667 27.1055 12.46C27.1055 12.86 27.5588 13.12 28.4655 13.24C29.3455 13.3333 30.1988 13.5867 31.0255 14C31.4121 14.1867 31.7321 14.5133 31.9855 14.98C32.2521 15.4333 32.3855 16.0067 32.3855 16.7C32.3855 17.3933 32.2521 17.9867 31.9855 18.48C31.7321 18.96 31.3721 19.32 30.9055 19.56C30.0521 19.9733 28.9788 20.18 27.6855 20.18C26.4055 20.18 25.1721 19.8067 23.9855 19.06ZM39.4981 13L38.1981 12.92V15.68C38.1981 16.04 38.2515 16.3 38.3581 16.46C38.4781 16.62 38.6915 16.7 38.9981 16.7C39.3181 16.7 39.5581 16.7133 39.7181 16.74C39.8915 16.7533 40.0715 16.8133 40.2581 16.92C40.5648 17.0933 40.7181 17.54 40.7181 18.26C40.7181 19.1 40.5315 19.6133 40.1581 19.8C39.9581 19.8933 39.7781 19.9533 39.6181 19.98C39.4715 19.9933 39.2515 20 38.9581 20C37.5715 20 36.5181 19.6867 35.7981 19.06C35.0781 18.4333 34.7181 17.3733 34.7181 15.88V12.92C34.4648 12.96 34.1915 12.98 33.8981 12.98C33.6048 12.98 33.3581 12.8667 33.1581 12.64C32.9715 12.4133 32.8781 12.0267 32.8781 11.48C32.8781 10.9333 32.9115 10.54 32.9781 10.3C33.0448 10.0467 33.1381 9.86667 33.2581 9.76C33.4715 9.58667 33.7381 9.5 34.0581 9.5L34.7181 9.58V7.52C34.7181 7.21333 34.7248 6.98667 34.7381 6.84C34.7648 6.69333 34.8315 6.53333 34.9381 6.36C35.1115 6.02667 35.6248 5.86 36.4781 5.86C37.3848 5.86 37.9248 6.10667 38.0981 6.6C38.1648 6.81333 38.1981 7.15333 38.1981 7.62V9.58C38.7848 9.52667 39.2248 9.5 39.5181 9.5C39.8248 9.5 40.0515 9.51333 40.1981 9.54C40.3581 9.55333 40.5381 9.61333 40.7381 9.72C41.0848 9.89333 41.2581 10.4067 41.2581 11.26C41.2581 12.1 41.0781 12.6133 40.7181 12.8C40.5181 12.8933 40.3381 12.9533 40.1781 12.98C40.0315 12.9933 39.8048 13 39.4981 13Z" fill="currentColor"/>
        <path d="M56.5 5.34C56.8067 5.34 57.0333 5.35333 57.18 5.38C57.34 5.39333 57.5133 5.45333 57.7 5.56C57.9 5.66667 58.04 5.84667 58.12 6.1C58.2 6.35333 58.24 6.69333 58.24 7.12C58.24 7.54667 58.2 7.88667 58.12 8.14C58.04 8.39333 57.9 8.57333 57.7 8.68C57.5 8.77333 57.32 8.83333 57.16 8.86C57.0133 8.87333 56.78 8.88 56.46 8.88H50.34V10.9H54.28C54.6 10.9 54.8333 10.9133 54.98 10.94C55.14 10.9533 55.32 11.0133 55.52 11.12C55.8667 11.32 56.04 11.8467 56.04 12.7C56.04 13.6333 55.7867 14.1867 55.28 14.36C55.0667 14.4267 54.7267 14.46 54.26 14.46H50.34V18.24C50.34 18.56 50.3267 18.7933 50.3 18.94C50.2867 19.0867 50.2267 19.26 50.12 19.46C49.9333 19.82 49.4133 20 48.56 20C47.6267 20 47.08 19.7467 46.92 19.24C46.84 19.0267 46.8 18.6867 46.8 18.22V7.1C46.8 6.42 46.9267 5.96 47.18 5.72C47.4333 5.46667 47.9133 5.34 48.62 5.34L56.5 5.34ZM59.1438 11.22C59.1438 10.9133 59.1504 10.6867 59.1638 10.54C59.1904 10.38 59.2504 10.2 59.3438 10C59.5304 9.65333 60.0504 9.48 60.9038 9.48C61.5438 9.48 61.9971 9.59333 62.2638 9.82C62.4904 10.0067 62.6104 10.2933 62.6238 10.68C62.6371 10.8133 62.6438 11.0067 62.6438 11.26V18.26C62.6438 18.5667 62.6304 18.8 62.6038 18.96C62.5904 19.1067 62.5304 19.28 62.4238 19.48C62.2504 19.8267 61.7371 20 60.8838 20C60.0438 20 59.5304 19.82 59.3438 19.46C59.2504 19.26 59.1904 19.0867 59.1638 18.94C59.1504 18.7933 59.1438 18.56 59.1438 18.24V11.22ZM62.4238 7.52C62.3304 7.70667 62.1571 7.84 61.9038 7.92C61.6504 8 61.3104 8.04 60.8838 8.04C60.4704 8.04 60.1371 8 59.8838 7.92C59.6304 7.84 59.4504 7.7 59.3438 7.5C59.2504 7.3 59.1904 7.12667 59.1638 6.98C59.1504 6.82 59.1438 6.58667 59.1438 6.28C59.1438 5.97333 59.1504 5.74667 59.1638 5.6C59.1904 5.44 59.2504 5.26667 59.3438 5.08C59.5304 4.72 60.0504 4.54 60.9038 4.54C61.7438 4.54 62.2504 4.72 62.4238 5.08C62.5304 5.28 62.5904 5.46 62.6038 5.62C62.6304 5.76667 62.6438 5.99333 62.6438 6.3C62.6438 6.60667 62.6304 6.84 62.6038 7C62.5904 7.14667 62.5304 7.32 62.4238 7.52ZM70.3614 13L69.0614 12.92V15.68C69.0614 16.04 69.1147 16.3 69.2214 16.46C69.3414 16.62 69.5547 16.7 69.8614 16.7C70.1814 16.7 70.4214 16.7133 70.5814 16.74C70.7547 16.7533 70.9347 16.8133 71.1214 16.92C71.4281 17.0933 71.5814 17.54 71.5814 18.26C71.5814 19.1 71.3947 19.6133 71.0214 19.8C70.8214 19.8933 70.6414 19.9533 70.4814 19.98C70.3347 19.9933 70.1147 20 69.8214 20C68.4347 20 67.3814 19.6867 66.6614 19.06C65.9414 18.4333 65.5814 17.3733 65.5814 15.88V12.92C65.3281 12.96 65.0547 12.98 64.7614 12.98C64.4681 12.98 64.2214 12.8667 64.0214 12.64C63.8347 12.4133 63.7414 12.0267 63.7414 11.48C63.7414 10.9333 63.7747 10.54 63.8414 10.3C63.9081 10.0467 64.0014 9.86667 64.1214 9.76C64.3347 9.58667 64.6014 9.5 64.9214 9.5L65.5814 9.58V7.52C65.5814 7.21333 65.5881 6.98667 65.6014 6.84C65.6281 6.69333 65.6947 6.53333 65.8014 6.36C65.9747 6.02667 66.4881 5.86 67.3414 5.86C68.2481 5.86 68.7881 6.10667 68.9614 6.6C69.0281 6.81333 69.0614 7.15333 69.0614 7.62V9.58C69.6481 9.52667 70.0881 9.5 70.3814 9.5C70.6881 9.5 70.9147 9.51333 71.0614 9.54C71.2214 9.55333 71.4014 9.61333 71.6014 9.72C71.9481 9.89333 72.1214 10.4067 72.1214 11.26C72.1214 12.1 71.9414 12.6133 71.5814 12.8C71.3814 12.8933 71.2014 12.9533 71.0414 12.98C70.8947 12.9933 70.6681 13 70.3614 13Z" fill="currentColor"/>
        <path d="M63 24H11" stroke="currentColor" stroke-width="3" stroke-linecap="round"/>
      </symbol>
  </defs>
</svg>
