<svg width="180" height="180" viewBox="0 0 180 180" fill="none" xmlns="http://www.w3.org/2000/svg">
<rect width="180" height="180" rx="6" fill="url(#paint0_linear_1117_2)"/>
<g filter="url(#filter0_d_1117_2)">
<path d="M66.336 45.108C69.56 45.108 71.916 45.3973 73.404 45.976C74.9747 46.472 76.0907 47.34 76.752 48.58C77.6613 50.4813 78.116 53.044 78.116 56.268V104.256C78.116 112.936 74.9747 120.624 68.692 127.32C62.4093 133.933 54.3907 137.24 44.636 137.24C39.18 137.24 34.344 136.041 30.128 133.644C26.3253 131.577 23.68 129.717 22.192 128.064L21.2 127.072C18.3067 124.013 16.86 121.409 16.86 119.26C16.86 117.028 18.3067 114.424 21.2 111.448C24.0933 108.472 26.656 106.984 28.888 106.984C31.12 106.984 33.6 108.348 36.328 111.076C39.056 113.804 41.9907 115.168 45.132 115.168C48.356 115.168 51.0013 114.093 53.068 111.944C55.1347 109.795 56.168 106.943 56.168 103.388V57.012C56.168 52.052 56.9947 48.8693 58.648 47.464C60.5493 45.8933 63.112 45.108 66.336 45.108ZM148.155 45.108C150.056 45.108 151.461 45.1907 152.371 45.356C153.363 45.4387 154.437 45.8107 155.595 46.472C156.835 47.1333 157.703 48.2493 158.199 49.82C158.695 51.3907 158.943 53.4987 158.943 56.144C158.943 58.7893 158.695 60.8973 158.199 62.468C157.703 64.0387 156.835 65.1547 155.595 65.816C154.355 66.3947 153.239 66.7667 152.247 66.932C151.337 67.0147 149.891 67.056 147.907 67.056H109.963V79.58H134.391C136.375 79.58 137.821 79.6627 138.731 79.828C139.723 79.9107 140.839 80.2827 142.079 80.944C144.228 82.184 145.303 85.4493 145.303 90.74C145.303 96.5267 143.732 99.9573 140.591 101.032C139.268 101.445 137.16 101.652 134.267 101.652H109.963V125.088C109.963 127.072 109.88 128.519 109.715 129.428C109.632 130.337 109.26 131.412 108.599 132.652C107.441 134.884 104.217 136 98.9267 136C93.14 136 89.7507 134.429 88.7587 131.288C88.2627 129.965 88.0147 127.857 88.0147 124.964V56.02C88.0147 51.804 88.8 48.952 90.3707 47.464C91.9414 45.8933 94.9174 45.108 99.2987 45.108H148.155Z" fill="#F17C70"/>
</g>
<defs>
<filter id="filter0_d_1117_2" x="12.86" y="41.108" width="150.083" height="100.132" filterUnits="userSpaceOnUse" color-interpolation-filters="sRGB">
<feFlood flood-opacity="0" result="BackgroundImageFix"/>
<feColorMatrix in="SourceAlpha" type="matrix" values="0 0 0 0 0 0 0 0 0 0 0 0 0 0 0 0 0 0 127 0" result="hardAlpha"/>
<feOffset/>
<feGaussianBlur stdDeviation="2"/>
<feComposite in2="hardAlpha" operator="out"/>
<feColorMatrix type="matrix" values="0 0 0 0 1 0 0 0 0 1 0 0 0 0 1 0 0 0 1 0"/>
<feBlend mode="normal" in2="BackgroundImageFix" result="effect1_dropShadow_1117_2"/>
<feBlend mode="normal" in="SourceGraphic" in2="effect1_dropShadow_1117_2" result="shape"/>
</filter>
<linearGradient id="paint0_linear_1117_2" x1="90" y1="0" x2="90" y2="180" gradientUnits="userSpaceOnUse">
<stop stop-color="#FFBB0C" stop-opacity="0.5"/>
<stop offset="1" stop-color="#F17C70" stop-opacity="0.5"/>
</linearGradient>
</defs>
</svg>
