<svg width="81" height="57" viewBox="0 0 81 57" fill="none" xmlns="http://www.w3.org/2000/svg">
  <defs>
    <symbol id="contact_icon">
    <path d="M71.0144 33.3858C72.4951 33.6742 73.856 34.397 74.9228 35.4617C75.9896 36.5265 76.7137 37.8847 77.0026 39.3626M71.0144 27.3333C74.0908 27.6745 76.9596 29.0495 79.1497 31.2327C81.3398 33.4158 82.7211 36.2774 83.0667 39.3475M81.5507 51.4221V55.9615C81.5524 56.3829 81.4659 56.8 81.2968 57.1861C81.1276 57.5722 80.8795 57.9188 80.5684 58.2037C80.2573 58.4886 79.89 58.7055 79.49 58.8405C79.0901 58.9755 78.6663 59.0257 78.2458 58.9877C73.5807 58.4818 69.0997 56.8908 65.1626 54.3425C61.4996 52.0193 58.3941 48.9197 56.0665 45.2638C53.5044 41.3164 51.91 36.8221 51.4123 32.1451C51.3744 31.7266 51.4243 31.3049 51.5586 30.9068C51.693 30.5086 51.9089 30.1427 52.1927 29.8324C52.4765 29.5221 52.8219 29.2742 53.207 29.1045C53.592 28.9347 54.0083 28.8469 54.4292 28.8465H58.9772C59.713 28.8392 60.4262 29.0993 60.9841 29.5781C61.5419 30.0569 61.9063 30.7219 62.0093 31.449C62.2012 32.9017 62.5572 34.3281 63.0705 35.7009C63.2744 36.2425 63.3186 36.831 63.1977 37.3969C63.0768 37.9627 62.7959 38.4821 62.3883 38.8935L60.4629 40.8152C62.6211 44.6034 65.7636 47.7399 69.559 49.8939L71.4843 47.9722C71.8965 47.5654 72.4169 47.2851 72.9839 47.1644C73.5508 47.0437 74.1405 47.0878 74.6831 47.2913C76.0586 47.8036 77.4877 48.1589 78.9431 48.3505C79.6796 48.4542 80.3521 48.8244 80.8329 49.3908C81.3137 49.9571 81.5691 50.6801 81.5507 51.4221Z" stroke="currentColor" stroke-width="3" stroke-linecap="round" stroke-linejoin="round"/>
    <path d="M33.6667 23.1111C33.6667 24.0443 33.296 24.9392 32.6361 25.5991C31.9763 26.2589 31.0813 26.6296 30.1481 26.6296H9.03704L2 33.6667V5.51852C2 4.58535 2.3707 3.6904 3.03055 3.03055C3.6904 2.3707 4.58535 2 5.51852 2H30.1481C31.0813 2 31.9763 2.3707 32.6361 3.03055C33.296 3.6904 33.6667 4.58535 33.6667 5.51852V23.1111Z" stroke="currentColor" stroke-width="3" stroke-linecap="round" stroke-linejoin="round"/>
    <path d="M72.3 2L8.33337 57.7333" stroke="currentColor" stroke-width="2"/>
    </symbol>
  </defs>
</svg>
