<svg fill="none" xmlns="http://www.w3.org/2000/svg">
  <defs>
    <symbol id="female" viewBox="0 0 28 58">
      <path d="M13.5949 0C17.5989 0 20.8449 3.24596 20.8449 7.25C20.8449 11.254 17.5989 14.5 13.5949 14.5C9.59086 14.5 6.3449 11.254 6.3449 7.25C6.3449 3.24596 9.59086 0 13.5949 0ZM27.1074 40.1218L21.6699 18.3718C21.5229 17.7836 21.1834 17.2615 20.7055 16.8883C20.2276 16.5152 19.6387 16.3125 19.0324 16.3125H17.7455C15.1728 17.4955 12.1279 17.5466 9.44427 16.3125H8.1574C7.55108 16.3125 6.96217 16.5152 6.48428 16.8883C6.00638 17.2615 5.66693 17.7836 5.51987 18.3718L0.0823696 40.1218C-0.34606 41.8353 0.950784 43.5 2.7199 43.5H9.06365V55.2812C9.06365 56.7828 10.2809 58 11.7824 58H15.4074C16.9089 58 18.1261 56.7828 18.1261 55.2812V43.5H24.4699C26.2361 43.5 27.5365 41.838 27.1074 40.1218Z" fill="currentColor"/>
    </symbol>
  </defs>
</svg>
