<svg fill="none" xmlns="http://www.w3.org/2000/svg">
  <defs>
    <symbol id="male" viewBox="0 0 22 58">
      <path d="M10.875 0C14.879 0 18.125 3.24596 18.125 7.25C18.125 11.254 14.879 14.5 10.875 14.5C6.87096 14.5 3.625 11.254 3.625 7.25C3.625 3.24596 6.87096 0 10.875 0ZM16.3125 16.3125H15.0256C12.4529 17.4955 9.40801 17.5466 6.72438 16.3125H5.4375C2.43441 16.3125 0 18.7469 0 21.75V37.1562C0 38.6578 1.21721 39.875 2.71875 39.875H4.53125V55.2812C4.53125 56.7828 5.74846 58 7.25 58H14.5C16.0015 58 17.2188 56.7828 17.2188 55.2812V39.875H19.0312C20.5328 39.875 21.75 38.6578 21.75 37.1562V21.75C21.75 18.7469 19.3156 16.3125 16.3125 16.3125Z" fill="currentColor"/>
    </symbol>
  </defs>
</svg>
