<svg width="48" height="29" viewBox="0 0 48 29" fill="none" xmlns="http://www.w3.org/2000/svg">
  <defs>
    <symbol id="menu_small">
      <path d="M0 2.74286C0 1.22802 1.22802 0 2.74286 0H45.2571C46.772 0 48 1.22802 48 2.74286C48 4.2577 46.772 5.48571 45.2571 5.48571H2.74286C1.22802 5.48571 0 4.2577 0 2.74286Z" fill="#FF9A03"/>
      <path d="M0 14.7428C0 13.4173 1.07452 12.3428 2.4 12.3428H45.6C46.9255 12.3428 48 13.4173 48 14.7428C48 16.0683 46.9255 17.1428 45.6 17.1428H2.4C1.07452 17.1428 0 16.0683 0 14.7428Z" fill="#FF9A03"/>
      <path d="M0 25.7144C0 24.3889 1.07452 23.3144 2.4 23.3144H45.6C46.9255 23.3144 48 24.3889 48 25.7144C48 27.0399 46.9255 28.1144 45.6 28.1144H2.4C1.07452 28.1144 0 27.0399 0 25.7144Z" fill="#FF9A03"/>
    </symbol>
  </defs>
</svg>
