<svg fill="none" xmlns="http://www.w3.org/2000/svg">
  <defs>
    <symbol id="bra" viewBox="0 0 76 63">
      <path d="M11.0532 59.6667L10.4519 61.5742C10.6465 61.6355 10.8492 61.6667 11.0532 61.6667V59.6667ZM13.0532 2.33334C13.0532 1.22877 12.1578 0.333336 11.0532 0.333336C9.94863 0.333336 9.0532 1.22877 9.0532 2.33334H13.0532ZM29.1136 40.5556L27.5729 41.8307L29.1136 40.5556ZM65.8354 59.6667V61.6667C66.0605 61.6667 66.284 61.6287 66.4965 61.5542L65.8354 59.6667ZM67.8354 2.33334C67.8354 1.22877 66.94 0.333336 65.8354 0.333336C64.7308 0.333336 63.8354 1.22877 63.8354 2.33334H67.8354ZM49.581 40.5556L47.977 39.3609L49.581 40.5556ZM38 57.6667H11.0532V61.6667H38V57.6667ZM11.6544 57.7592C7.64097 56.4941 4.59302 52.0051 4.20682 46.235C3.82832 40.5799 6.08913 34.0779 12.2598 29.4098L9.84657 26.2198C2.54388 31.7443 -0.247835 39.5757 0.215753 46.5021C0.671638 53.3134 4.36038 59.654 10.4519 61.5742L11.6544 57.7592ZM13.0532 27.8148V2.33334H9.0532V27.8148H13.0532ZM9.67904 29.268C12.4335 31.8727 16.1004 33.8515 19.3257 35.7083C22.6817 37.6403 25.6154 39.4655 27.5729 41.8307L30.6544 39.2804C28.1732 36.2822 24.6162 34.1385 21.3214 32.2417C17.8959 30.2697 14.752 28.5599 12.4273 26.3616L9.67904 29.268ZM27.5729 41.8307C29.5717 44.246 31.6953 48.7522 33.3681 52.8744C34.1873 54.8933 34.8713 56.7501 35.3505 58.1027C35.5899 58.7784 35.7776 59.3266 35.905 59.7045C35.9687 59.8934 36.0173 60.0396 36.0497 60.1377C36.0659 60.1868 36.078 60.2238 36.0859 60.2481C36.0899 60.2603 36.0928 60.2693 36.0947 60.275C36.0956 60.2778 36.0963 60.2799 36.0967 60.2811C36.0969 60.2817 36.097 60.2821 36.0971 60.2823C36.0971 60.2824 36.0971 60.2824 36.0971 60.2825C36.0971 60.2824 36.0971 60.2823 38 59.6667C39.9029 59.0511 39.9028 59.0508 39.9027 59.0506C39.9026 59.0504 39.9025 59.0501 39.9024 59.0498C39.9022 59.0491 39.902 59.0483 39.9016 59.0472C39.9009 59.0451 39.9 59.0422 39.8988 59.0384C39.8963 59.0309 39.8928 59.02 39.8882 59.006C39.879 58.978 39.8657 58.9372 39.8482 58.8842C39.8133 58.7784 39.7619 58.624 39.6954 58.4265C39.5622 58.0315 39.3678 57.4639 39.1208 56.7669C38.6274 55.3742 37.9221 53.4589 37.0746 51.3704C35.4139 47.2779 33.0943 42.2286 30.6544 39.2804L27.5729 41.8307ZM41.5833 61.6667H65.8354V57.6667H41.5833V61.6667ZM66.4965 61.5542C72.1236 59.5835 75.3863 53.1814 75.7895 46.4888C76.2015 39.6497 73.7302 31.8382 67.1223 26.2838L64.5485 29.3458C70.0666 33.9841 72.1426 40.5059 71.7967 46.2483C71.442 52.1372 68.6417 56.5647 65.1743 57.7791L66.4965 61.5542ZM67.8354 27.8148V2.33334H63.8354V27.8148H67.8354ZM64.3867 26.436C62.3096 28.6183 59.5039 30.3139 56.4144 32.2902C53.4429 34.1909 50.2206 36.3487 47.977 39.3609L51.1849 41.7502C52.9362 39.399 55.5555 37.5879 58.5697 35.6598C61.4659 33.8073 64.7899 31.8143 67.2841 29.1937L64.3867 26.436ZM47.977 39.3609C45.7825 42.3072 43.6983 47.3486 42.2054 51.4363C41.4435 53.5226 40.8093 55.4359 40.3657 56.8272C40.1437 57.5234 39.9689 58.0904 39.8493 58.4847C39.7894 58.6819 39.7434 58.836 39.712 58.9416C39.6963 58.9944 39.6843 59.0351 39.6761 59.0629C39.672 59.0769 39.6689 59.0876 39.6667 59.0951C39.6656 59.0988 39.6647 59.1017 39.6641 59.1038C39.6638 59.1049 39.6636 59.1057 39.6634 59.1063C39.6633 59.1066 39.6632 59.1069 39.6632 59.1071C39.6631 59.1074 39.663 59.1076 41.5833 59.6667C43.5036 60.2258 43.5035 60.2259 43.5035 60.2259C43.5035 60.2259 43.5035 60.2259 43.5036 60.2258C43.5036 60.2256 43.5037 60.2251 43.5039 60.2245C43.5043 60.2232 43.5049 60.2212 43.5057 60.2183C43.5074 60.2125 43.5101 60.2034 43.5137 60.1912C43.5209 60.1667 43.5318 60.1296 43.5465 60.0804C43.5757 59.982 43.6195 59.8355 43.6769 59.6462C43.7918 59.2678 43.9609 58.7188 44.1766 58.0424C44.6084 56.6884 45.2246 54.8295 45.9627 52.8085C47.47 48.6815 49.3846 44.1673 51.1849 41.7502L47.977 39.3609ZM38 59.6667C36.5857 61.0809 36.5864 61.0816 36.5872 61.0823C36.5874 61.0825 36.5881 61.0832 36.5886 61.0837C36.5896 61.0847 36.5906 61.0857 36.5917 61.0868C36.5938 61.0888 36.596 61.091 36.5983 61.0934C36.603 61.098 36.6082 61.1031 36.6139 61.1086C36.6253 61.1196 36.6388 61.1325 36.6542 61.1469C36.685 61.1757 36.7239 61.2111 36.7706 61.2515C36.8634 61.3319 36.9895 61.4347 37.1454 61.5461C37.4494 61.7632 37.908 62.0428 38.4873 62.2359C39.0749 62.4318 39.8256 62.5505 40.6598 62.3837C41.5087 62.2139 42.3021 61.7763 42.9975 61.0809L40.1691 58.2525C40.0637 58.3579 39.9865 58.409 39.9436 58.4328C39.9023 58.4557 39.8804 58.4603 39.8753 58.4614C39.8696 58.4625 39.8365 58.4693 39.7522 58.4412C39.6596 58.4103 39.5583 58.3539 39.4704 58.2912C39.4303 58.2626 39.4025 58.2394 39.3903 58.2288C39.3845 58.2237 39.3832 58.2224 39.3868 58.2258C39.3887 58.2275 39.3919 58.2305 39.3964 58.2349C39.3986 58.2371 39.4013 58.2397 39.4042 58.2426C39.4057 58.244 39.4073 58.2456 39.4089 58.2472C39.4098 58.248 39.4106 58.2489 39.4115 58.2498C39.4119 58.2502 39.4126 58.2509 39.4128 58.2511C39.4135 58.2518 39.4142 58.2525 38 59.6667Z" fill="currentColor"/>
    </symbol>
  </defs>
</svg>
