<svg fill="none" xmlns="http://www.w3.org/2000/svg">
  <defs>
    <symbol id="delivery" viewBox="0 0 75 52">
      <path d="M60.8333 15.8778L62.6847 14.1931C62.2107 13.6693 61.5383 13.3708 60.8333 13.3708V15.8778ZM72.5 28.7709H75C75 28.1482 74.7687 27.5475 74.3513 27.0862L72.5 28.7709ZM72.5 42.6194L72.5003 45.1264C73.881 45.1261 75 44.0039 75 42.6194H72.5ZM49.1667 15.8778V13.3708C47.786 13.3708 46.6667 14.4933 46.6667 15.8778H49.1667ZM2.50001 0C1.11928 0 0 1.12244 0 2.50702C0 3.8916 1.11928 5.01404 2.50001 5.01404V0ZM49.1667 2.50702H51.6667C51.6667 1.12244 50.5474 0 49.1667 0V2.50702ZM12.5007 40.1124C11.1199 40.112 10.0004 41.2342 10 42.6187C9.9996 44.0033 11.1186 45.1261 12.4993 45.1264L12.5007 40.1124ZM14.1667 25.0702C15.5474 25.0702 16.6667 23.9478 16.6667 22.5632C16.6667 21.1787 15.5474 20.0562 14.1667 20.0562V25.0702ZM9.16667 20.0562C7.78594 20.0562 6.66667 21.1787 6.66667 22.5632C6.66667 23.9478 7.78594 25.0702 9.16667 25.0702V20.0562ZM14.1667 35.0983C15.5474 35.0983 16.6667 33.9758 16.6667 32.5913C16.6667 31.2067 15.5474 30.0843 14.1667 30.0843V35.0983ZM12.5 30.0843C11.1193 30.0843 10 31.2067 10 32.5913C10 33.9758 11.1193 35.0983 12.5 35.0983V30.0843ZM14.1667 15.0422C15.5474 15.0422 16.6667 13.9197 16.6667 12.5351C16.6667 11.1505 15.5474 10.0281 14.1667 10.0281V15.0422ZM5.83334 10.0281C4.45261 10.0281 3.33334 11.1505 3.33334 12.5351C3.33334 13.9197 4.45261 15.0422 5.83334 15.0422V10.0281ZM58.982 17.5625L70.6487 30.4556L74.3513 27.0862L62.6847 14.1931L58.982 17.5625ZM70 28.7709V42.6194H75V28.7709H70ZM72.4997 40.1124L65.5487 40.1134L65.5493 45.1274L72.5003 45.1264L72.4997 40.1124ZM67.9063 41.7854C66.8783 38.8669 64.1033 36.7697 60.8333 36.7697V41.7837C61.918 41.7837 62.8477 42.478 63.1917 43.4554L67.9063 41.7854ZM60.8333 36.7697C57.5634 36.7697 54.788 38.8669 53.76 41.7854L58.4747 43.4554C58.819 42.478 59.7483 41.7837 60.8333 41.7837V36.7697ZM56.1177 40.1134L49.167 40.1124L49.1664 45.1264L56.117 45.1274L56.1177 40.1134ZM51.6667 42.6194V15.8778H46.6667V42.6194H51.6667ZM49.1667 18.3848H60.8333V13.3708H49.1667V18.3848ZM2.50001 5.01404H49.1667V0H2.50001V5.01404ZM46.6667 2.50702V42.6194H51.6667V2.50702H46.6667ZM49.167 40.1124L25.5491 40.1134L25.5493 45.1274L49.1664 45.1264L49.167 40.1124ZM27.9064 41.7854C26.8784 38.8669 24.1033 36.7697 20.8333 36.7697V41.7837C21.9181 41.7837 22.8476 42.478 23.1919 43.4554L27.9064 41.7854ZM20.8333 36.7697C17.5633 36.7697 14.7882 38.8669 13.7602 41.7854L18.4748 43.4554C18.819 42.478 19.7485 41.7837 20.8333 41.7837V36.7697ZM16.1182 40.1134L12.5007 40.1124L12.4993 45.1264L16.1168 45.1274L16.1182 40.1134ZM60.8333 41.7837C62.214 41.7837 63.3333 42.9062 63.3333 44.2907H68.3333C68.3333 40.1371 64.9753 36.7697 60.8333 36.7697V41.7837ZM63.3333 44.2907C63.3333 45.6753 62.214 46.7977 60.8333 46.7977V51.8118C64.9753 51.8118 68.3333 48.4443 68.3333 44.2907H63.3333ZM60.8333 46.7977C59.4527 46.7977 58.3334 45.6753 58.3334 44.2907H53.3334C53.3334 48.4443 56.691 51.8118 60.8333 51.8118V46.7977ZM58.3334 44.2907C58.3334 42.9062 59.4527 41.7837 60.8333 41.7837V36.7697C56.691 36.7697 53.3334 40.1371 53.3334 44.2907H58.3334ZM20.8333 41.7837C22.214 41.7837 23.3333 42.9062 23.3333 44.2907H28.3333C28.3333 40.1371 24.9755 36.7697 20.8333 36.7697V41.7837ZM23.3333 44.2907C23.3333 45.6753 22.214 46.7977 20.8333 46.7977V51.8118C24.9755 51.8118 28.3333 48.4443 28.3333 44.2907H23.3333ZM20.8333 46.7977C19.4526 46.7977 18.3333 45.6753 18.3333 44.2907H13.3333C13.3333 48.4443 16.6912 51.8118 20.8333 51.8118V46.7977ZM18.3333 44.2907C18.3333 42.9062 19.4526 41.7837 20.8333 41.7837V36.7697C16.6912 36.7697 13.3333 40.1371 13.3333 44.2907H18.3333ZM14.1667 20.0562H9.16667V25.0702H14.1667V20.0562ZM14.1667 30.0843H12.5V35.0983H14.1667V30.0843ZM14.1667 10.0281H5.83334V15.0422H14.1667V10.0281ZM53.76 41.7854C53.483 42.5722 53.3334 43.4166 53.3334 44.2907H58.3334C58.3334 43.9932 58.3837 43.7134 58.4747 43.4554L53.76 41.7854ZM68.3333 44.2907C68.3333 43.4166 68.1837 42.5722 67.9063 41.7854L63.1917 43.4554C63.2827 43.7134 63.3333 43.9932 63.3333 44.2907H68.3333ZM13.7602 41.7854C13.483 42.5722 13.3333 43.4166 13.3333 44.2907H18.3333C18.3333 43.9932 18.3839 43.7134 18.4748 43.4554L13.7602 41.7854ZM28.3333 44.2907C28.3333 43.4166 28.1836 42.5722 27.9064 41.7854L23.1919 43.4554C23.2828 43.7134 23.3333 43.9932 23.3333 44.2907H28.3333Z" fill="currentColor"/>
    </symbol>
  </defs>
</svg>
