<svg fill="none" xmlns="http://www.w3.org/2000/svg">
  <defs>
    <symbol id="filter" viewBox="0 0 55 55">
      <path d="M32.0833 55H22.9167C21.7011 55 20.5353 54.5171 19.6758 53.6576C18.8162 52.798 18.3333 51.6322 18.3333 50.4167V33.0229L1.35208 16.0417C0.491362 15.1861 0.00511681 14.024 0 12.8104V4.58333C0 3.36776 0.482885 2.20197 1.34243 1.34243C2.20197 0.482885 3.36776 0 4.58333 0H50.4167C51.6322 0 52.798 0.482885 53.6576 1.34243C54.5171 2.20197 55 3.36776 55 4.58333V12.8104C54.9949 14.024 54.5086 15.1861 53.6479 16.0417L36.6667 33.0229V50.4167C36.6667 51.6322 36.1838 52.798 35.3242 53.6576C34.4647 54.5171 33.2989 55 32.0833 55ZM4.58333 4.58333V12.8104L22.9167 31.1438V50.4167H32.0833V31.1438L50.4167 12.8104V4.58333H4.58333Z" fill="currentColor"/>
    </symbol>
  </defs>
</svg>
