<svg fill="none" xmlns="http://www.w3.org/2000/svg">
  <defs>
    <symbol id="hide_filter" viewBox="0 0 59 55">
      <path d="M29.5 30.9474L28.05 32.3249C28.4276 32.7223 28.9518 32.9474 29.5 32.9474C30.0482 32.9474 30.5724 32.7223 30.95 32.3249L29.5 30.9474ZM0.550001 3.3775L28.05 32.3249L30.95 29.5699L3.45 0.622501L0.550001 3.3775ZM30.95 32.3249L58.45 3.3775L55.55 0.622501L28.05 29.5699L30.95 32.3249Z" fill="currentColor"/>
      <path d="M29.5 52.6579L28.05 54.0354C28.4276 54.4329 28.9518 54.6579 29.5 54.6579C30.0482 54.6579 30.5724 54.4329 30.95 54.0354L29.5 52.6579ZM0.550001 25.088L28.05 54.0354L30.95 51.2804L3.45 22.333L0.550001 25.088ZM30.95 54.0354L58.45 25.088L55.55 22.333L28.05 51.2804L30.95 54.0354Z" fill="currentColor"/>
    </symbol>
  </defs>
</svg>
