<svg fill="none" xmlns="http://www.w3.org/2000/svg">
  <defs>
    <symbol id="sleep" viewBox="0 0 53 64">
    <path fill-rule="evenodd" clip-rule="evenodd" d="M18.8679 14.4904C17.1207 13.8434 15.2038 13.5083 13.5454 13.8239C11.3583 14.2401 9.32505 15.3684 7.85292 16.8354C6.41923 18.264 5.64136 19.8804 5.58813 21.3291L7.31166 29.9468L12.9707 29.1383L13.4657 32.6032L7.90021 33.3982L9.56393 45.0442C9.67982 45.0671 9.80342 45.0913 9.93437 45.1167C10.9265 45.3087 12.3375 45.5653 14.0056 45.8219C17.3541 46.3371 21.686 46.8441 25.7288 46.8441H27.4788V50.3441H25.7288C21.4312 50.3441 16.9014 49.8086 13.4734 49.2812C11.7531 49.0165 10.2971 48.7518 9.26929 48.5529C8.75515 48.4534 8.34756 48.3702 8.06694 48.3116C7.92662 48.2823 7.818 48.2591 7.74363 48.243L7.65808 48.2244L7.62685 48.2176C7.62662 48.2175 7.62579 48.2173 8.00542 46.509L7.62685 48.2176C6.91586 48.0596 6.37601 47.4775 6.27301 46.7565L4.19477 32.2089L2.11919 21.831C2.09659 21.718 2.08521 21.603 2.08521 21.4878C2.08521 18.8062 3.44988 16.2819 5.38243 14.3561C7.32912 12.4163 9.98735 10.9382 12.891 10.3856C15.4083 9.90655 18.0091 10.4402 20.0833 11.2082C22.1348 11.9678 23.9474 13.0613 24.8812 13.995L24.8838 13.9977C25.274 14.3879 25.9743 15.0882 26.5401 16.3328C27.0982 17.5606 27.4788 19.2072 27.4788 21.4878H23.9788C23.9788 19.5982 23.6645 18.4646 23.3538 17.7811C23.052 17.1171 22.7116 16.7752 22.4063 16.4698C21.9499 16.0135 20.6377 15.1457 18.8679 14.4904Z" fill="currentColor"/>
    <path fill-rule="evenodd" clip-rule="evenodd" d="M7.1186 51.8335L6.27913 46.7967L9.73151 46.2213L10.5733 51.2722C10.7344 51.3018 10.9102 51.3336 11.0994 51.3675C12.1775 51.5606 13.691 51.8183 15.4293 52.0758C18.9268 52.5939 23.2547 53.0994 26.7713 53.0994V56.5994C22.99 56.5994 18.4562 56.0624 14.9164 55.538C13.1361 55.2742 11.5871 55.0106 10.4824 54.8127C10.0083 54.7278 9.61549 54.6549 9.32085 54.5992C5.84901 56.5394 3.5 60.0087 3.5 63.1899H0C0 58.6085 3.07758 54.2922 7.1186 51.8335Z" fill="currentColor"/>
    <path fill-rule="evenodd" clip-rule="evenodd" d="M8.5864 13.784L5.45874 1.27333L10.552 1.52588e-05L13.6796 12.5107L8.5864 13.784Z" fill="currentColor"/>
    <path fill-rule="evenodd" clip-rule="evenodd" d="M33.6321 14.4904C35.3793 13.8435 37.2962 13.5083 38.9546 13.8239C41.1417 14.2401 43.175 15.3685 44.6471 16.8354C46.0808 18.264 46.8586 19.8804 46.9119 21.3291L45.1883 29.9468L39.5293 29.1383L39.0343 32.6032L44.5998 33.3982L42.9361 45.0442C42.8202 45.0671 42.6966 45.0914 42.5656 45.1167C41.5735 45.3087 40.1625 45.5653 38.4944 45.8219C35.1459 46.3371 30.814 46.8441 26.7712 46.8441H25.0212V50.3441H26.7712C31.0688 50.3441 35.5986 49.8086 39.0266 49.2812C40.7469 49.0166 42.2029 48.7519 43.2307 48.5529C43.7448 48.4534 44.1524 48.3702 44.4331 48.3116C44.5734 48.2823 44.682 48.2591 44.7564 48.243L44.8419 48.2244L44.8732 48.2176C44.8734 48.2175 44.8742 48.2173 44.4946 46.509L44.8732 48.2176C45.5841 48.0596 46.124 47.4775 46.227 46.7565L48.3052 32.2089L50.3808 21.831C50.4034 21.718 50.4148 21.603 50.4148 21.4878C50.4148 18.8062 49.0501 16.2819 47.1176 14.3561C45.1709 12.4163 42.5127 10.9382 39.609 10.3856C37.0917 9.90656 34.4909 10.4402 32.4167 11.2082C30.3652 11.9679 28.5526 13.0613 27.6188 13.995L27.6162 13.9977C27.226 14.3879 26.5257 15.0882 25.9599 16.3328C25.4018 17.5606 25.0212 19.2072 25.0212 21.4878H28.5212C28.5212 19.5982 28.8355 18.4646 29.1462 17.7811C29.448 17.1171 29.7884 16.7752 30.0937 16.4699C30.5501 16.0135 31.8623 15.1458 33.6321 14.4904Z" fill="currentColor"/>
    <path fill-rule="evenodd" clip-rule="evenodd" d="M45.3814 51.8335L46.2209 46.7967L42.7685 46.2213L41.9267 51.2722C41.7656 51.3018 41.5898 51.3336 41.4006 51.3675C40.3225 51.5606 38.809 51.8183 37.0707 52.0758C33.5732 52.5939 29.2453 53.0994 25.7287 53.0994V56.5994C29.51 56.5994 34.0438 56.0624 37.5836 55.538C39.3639 55.2742 40.9129 55.0106 42.0176 54.8127C42.4917 54.7278 42.8845 54.6549 43.1791 54.5992C46.651 56.5394 49 60.0087 49 63.1899H52.5C52.5 58.6085 49.4224 54.2922 45.3814 51.8335Z" fill="currentColor"/>
    <path fill-rule="evenodd" clip-rule="evenodd" d="M43.9136 13.784L47.0413 1.27334L41.948 3.05176e-05L38.8204 12.5107L43.9136 13.784Z" fill="currentColor"/>
    </symbol>
  </defs>
</svg>
