<svg fill="none" xmlns="http://www.w3.org/2000/svg">
  <defs>
      <symbol id="instagram" viewBox="0 0 56 56">
          <path id="instagram_logo" d="M28.1347 0.693359C20.6876 0.693359 19.753 0.72586 16.8281 0.85871C13.9089 0.992131 11.9163 1.4534 10.1727 2.1302C8.36924 2.82923 6.83938 3.76431 5.31522 5.28611C3.78993 6.80733 2.85304 8.33425 2.15038 10.1337C1.47056 11.8745 1.00783 13.8638 0.87644 16.7762C0.74619 19.6955 0.711914 20.6289 0.711914 28.0617C0.711914 35.4945 0.745048 36.4244 0.877583 39.3437C1.01183 42.2573 1.47399 44.246 2.15152 45.9862C2.85247 47.7862 3.78936 49.3132 5.31408 50.8344C6.83766 52.3568 8.36753 53.2941 10.1699 53.9932C11.9146 54.67 13.9077 55.1312 16.8263 55.2646C19.7513 55.3975 20.6853 55.43 28.1318 55.43C35.5795 55.43 36.5112 55.3975 39.4361 55.2646C42.3553 55.1312 44.3502 54.67 46.0949 53.9932C47.8978 53.2941 49.4254 52.3568 50.949 50.8344C52.4743 49.3132 53.4112 47.7863 54.1138 45.9868C54.7879 44.246 55.2507 42.2567 55.3878 39.3443C55.5192 36.425 55.5534 35.4945 55.5534 28.0617C55.5534 20.6289 55.5192 19.6961 55.3878 16.7768C55.2507 13.8632 54.7879 11.8745 54.1138 10.1343C53.4112 8.33425 52.4743 6.80733 50.949 5.28611C49.4237 3.76374 47.8984 2.82866 46.0932 2.1302C44.3451 1.4534 42.3513 0.992131 39.4321 0.85871C36.5072 0.72586 35.5761 0.693359 28.1267 0.693359H28.1347ZM25.6748 5.62536C26.4049 5.62422 27.2195 5.62536 28.1347 5.62536C35.4561 5.62536 36.3239 5.65159 39.2151 5.78273C41.8886 5.90474 43.3396 6.35062 44.3062 6.72522C45.5859 7.22127 46.4982 7.81425 47.4574 8.77214C48.4171 9.73004 49.0112 10.6423 49.5094 11.9195C49.8847 12.8831 50.332 14.3313 50.4537 16.9997C50.5851 19.8848 50.6136 20.7515 50.6136 28.0554C50.6136 35.3593 50.5851 36.226 50.4537 39.1111C50.3314 41.7795 49.8847 43.2277 49.5094 44.1913C49.0124 45.4685 48.4171 46.3779 47.4574 47.3352C46.4976 48.2931 45.5865 48.8861 44.3062 49.3822C43.3408 49.7585 41.8886 50.2032 39.2151 50.3252C36.3244 50.4564 35.4561 50.4849 28.1347 50.4849C20.8127 50.4849 19.9449 50.4564 17.0543 50.3252C14.3807 50.2021 12.9297 49.7562 11.9625 49.3816C10.6829 48.8855 9.76886 48.2926 8.80912 47.3347C7.84938 46.3768 7.25526 45.4668 6.75711 44.189C6.38179 43.2254 5.93448 41.7772 5.8128 39.1088C5.68141 36.2237 5.65513 35.357 5.65513 28.0486C5.65513 20.7401 5.68141 19.878 5.8128 16.9929C5.93505 14.3245 6.38179 12.8763 6.75711 11.9115C7.25412 10.6343 7.84938 9.72205 8.80912 8.76416C9.76886 7.80627 10.6829 7.21329 11.9625 6.7161C12.9291 6.33979 14.3807 5.89505 17.0543 5.77246C19.5839 5.65843 20.5642 5.62422 25.6748 5.61852V5.62536ZM42.7718 10.1696C42.1209 10.1696 41.4847 10.3623 40.9436 10.7232C40.4024 11.0841 39.9807 11.5971 39.7316 12.1973C39.4826 12.7975 39.4175 13.4579 39.5446 14.095C39.6716 14.7321 39.9851 15.3173 40.4455 15.7765C40.9058 16.2358 41.4922 16.5485 42.1305 16.6751C42.7689 16.8017 43.4306 16.7365 44.0318 16.4877C44.6331 16.239 45.1469 15.8178 45.5083 15.2776C45.8698 14.7374 46.0626 14.1023 46.0623 13.4527C46.0623 11.6395 44.5884 10.1685 42.7718 10.1685V10.1696ZM28.1347 14.0069C20.3579 14.0069 14.0528 20.2999 14.0528 28.0617C14.0528 35.8234 20.3579 42.1136 28.1347 42.1136C35.9114 42.1136 42.2148 35.8234 42.2148 28.0617C42.2148 20.2999 35.9114 14.0069 28.1347 14.0069ZM28.1347 18.9389C33.1824 18.9389 37.275 23.0231 37.275 28.0617C37.275 33.0997 33.1824 37.1844 28.1347 37.1844C23.0863 37.1844 18.9943 33.0997 18.9943 28.0617C18.9943 23.0231 23.0863 18.9389 28.1347 18.9389Z" fill="currentColor"/>
      </symbol>
  </defs>
</svg>
