<svg width="52" height="52" viewBox="0 0 52 52" fill="none" xmlns="http://www.w3.org/2000/svg">
<g id="Insta Logo">
<path id="Vector" d="M26.118 0.666504C15.5183 0.666504 12.4183 0.677418 11.8157 0.727309C9.6405 0.907776 8.28693 1.24961 6.8123 1.98239C5.67586 2.54562 4.7796 3.19849 3.89505 4.11369C2.28413 5.78271 1.30781 7.83606 0.954382 10.2768C0.78255 11.4618 0.732562 11.7034 0.722408 17.7559C0.718503 19.7734 0.722408 22.4285 0.722408 25.9899C0.722408 36.5606 0.734124 39.6516 0.784893 40.2518C0.96063 42.3644 1.29258 43.6936 1.99553 45.1474C3.33894 47.9304 5.90471 50.0196 8.92739 50.7992C9.97401 51.0681 11.13 51.2162 12.614 51.2864C13.2427 51.3137 19.6513 51.3332 26.0637 51.3332C32.4762 51.3332 38.8887 51.3254 39.5018 51.2942C41.2201 51.2135 42.2179 51.0798 43.3212 50.7953C44.8199 50.4117 46.2167 49.7061 47.414 48.7279C48.6113 47.7497 49.5802 46.5225 50.253 45.1318C50.9423 43.713 51.2918 42.3332 51.45 40.331C51.4844 39.8944 51.4988 32.9342 51.4988 25.9833C51.4988 19.0312 51.4832 12.0838 51.4488 11.6473C51.2887 9.61266 50.9392 8.24454 50.2276 6.79847C49.6438 5.61472 48.9955 4.7307 48.0544 3.82681C46.3751 2.22561 44.3209 1.25117 41.8727 0.898811C40.6867 0.727699 40.4504 0.677028 34.3816 0.666504H26.118Z" fill="url(#paint0_radial_773_2)"/>
<path id="Vector_2" d="M26.118 0.666504C15.5183 0.666504 12.4183 0.677421 11.8157 0.727325C9.6405 0.907839 8.28693 1.24976 6.8123 1.98274C5.67586 2.54611 4.7796 3.19916 3.89505 4.1146C2.28413 5.78406 1.30781 7.83794 0.954382 10.2794C0.78255 11.4646 0.732562 11.7063 0.722408 17.7604C0.718503 19.7784 0.722408 22.4342 0.722408 25.9966C0.722408 36.5701 0.734124 39.6618 0.784893 40.2622C0.96063 42.3754 1.29258 43.7049 1.99553 45.1591C3.33894 47.9429 5.90471 50.0326 8.92739 50.8124C9.97401 51.0814 11.13 51.2295 12.614 51.2997C13.2427 51.327 19.6513 51.3465 26.0637 51.3465C32.4762 51.3465 38.8887 51.3387 39.5018 51.3075C41.2201 51.2268 42.2179 51.0931 43.3212 50.8085C44.8199 50.4248 46.2167 49.719 47.414 48.7406C48.6113 47.7621 49.5802 46.5345 50.253 45.1435C50.9423 43.7244 51.2918 42.3442 51.45 40.3414C51.4844 39.9047 51.4988 32.9427 51.4988 25.9899C51.4988 19.0361 51.4832 12.0868 51.4488 11.6502C51.2887 9.61501 50.9392 8.24654 50.2276 6.80008C49.6438 5.61602 48.9955 4.73177 48.0544 3.82764C46.3751 2.22602 44.3209 1.25132 41.8727 0.898872C40.6867 0.727715 40.4504 0.677031 34.3816 0.666504H26.118Z" fill="url(#paint1_radial_773_2)"/>
<path id="insta_logo" d="M26.1063 7.29297C21.0154 7.29297 20.3765 7.31519 18.377 7.406C16.3814 7.49721 15.0192 7.81254 13.8273 8.27521C12.5944 8.75307 11.5486 9.39231 10.5067 10.4326C9.46397 11.4725 8.8235 12.5164 8.34315 13.7465C7.87842 14.9365 7.5621 16.2964 7.47227 18.2874C7.38323 20.2831 7.3598 20.9211 7.3598 26.0022C7.3598 31.0834 7.38245 31.7191 7.47306 33.7148C7.56483 35.7065 7.88077 37.0661 8.34393 38.2557C8.82311 39.4862 9.46357 40.53 10.5059 41.5699C11.5474 42.6106 12.5933 43.2514 13.8254 43.7293C15.018 44.192 16.3806 44.5073 18.3758 44.5985C20.3753 44.6893 21.0138 44.7115 26.1043 44.7115C31.1957 44.7115 31.8326 44.6893 33.8321 44.5985C35.8277 44.5073 37.1914 44.192 38.3841 43.7293C39.6166 43.2514 40.6609 42.6106 41.7024 41.5699C42.7451 40.53 43.3856 39.4862 43.8659 38.256C44.3268 37.0661 44.6431 35.7061 44.7368 33.7151C44.8266 31.7195 44.8501 31.0834 44.8501 26.0022C44.8501 20.9211 44.8266 20.2834 44.7368 18.2878C44.6431 16.296 44.3268 14.9365 43.8659 13.7469C43.3856 12.5164 42.7451 11.4725 41.7024 10.4326C40.6597 9.39192 39.617 8.75268 38.3829 8.27521C37.1879 7.81254 35.825 7.49721 33.8294 7.406C31.8299 7.31519 31.1933 7.29297 26.1008 7.29297H26.1063ZM24.4247 10.6645C24.9238 10.6638 25.4807 10.6645 26.1063 10.6645C31.1113 10.6645 31.7045 10.6825 33.681 10.7721C35.5086 10.8555 36.5006 11.1603 37.1614 11.4164C38.0361 11.7555 38.6598 12.1609 39.3155 12.8157C39.9716 13.4705 40.3777 14.0942 40.7183 14.9673C40.9749 15.626 41.2806 16.616 41.3638 18.4402C41.4536 20.4125 41.4732 21.0049 41.4732 25.998C41.4732 30.991 41.4536 31.5835 41.3638 33.5557C41.2802 35.3799 40.9749 36.3699 40.7183 37.0286C40.3785 37.9017 39.9716 38.5234 39.3155 39.1779C38.6594 39.8327 38.0365 40.2381 37.1614 40.5772C36.5014 40.8344 35.5086 41.1384 33.681 41.2219C31.7049 41.3115 31.1113 41.331 26.1063 41.331C21.1009 41.331 20.5077 41.3115 18.5316 41.2219C16.704 41.1377 15.712 40.8329 15.0509 40.5768C14.1761 40.2377 13.5512 39.8323 12.8951 39.1775C12.2391 38.5226 11.8329 37.9006 11.4924 37.0271C11.2358 36.3684 10.93 35.3783 10.8468 33.5542C10.757 31.5819 10.739 30.9894 10.739 25.9933C10.739 20.9971 10.757 20.4078 10.8468 18.4355C10.9304 16.6114 11.2358 15.6213 11.4924 14.9618C11.8321 14.0887 12.2391 13.4651 12.8951 12.8103C13.5512 12.1554 14.1761 11.7501 15.0509 11.4102C15.7116 11.1529 16.704 10.8489 18.5316 10.7651C20.2609 10.6871 20.931 10.6638 24.4247 10.6599V10.6645ZM36.1124 13.7711C35.6675 13.7711 35.2325 13.9027 34.8626 14.1495C34.4927 14.3962 34.2043 14.7469 34.0341 15.1572C33.8639 15.5675 33.8194 16.0189 33.9062 16.4545C33.9931 16.89 34.2074 17.29 34.5221 17.604C34.8367 17.9179 35.2376 18.1317 35.674 18.2182C36.1104 18.3048 36.5627 18.2602 36.9738 18.0902C37.3848 17.9201 37.736 17.6322 37.9831 17.2629C38.2302 16.8936 38.362 16.4595 38.3618 16.0154C38.3618 14.7759 37.3543 13.7703 36.1124 13.7703V13.7711ZM26.1063 16.3943C20.79 16.3943 16.4798 20.6962 16.4798 26.0022C16.4798 31.3083 20.79 35.6083 26.1063 35.6083C31.4225 35.6083 35.7316 31.3083 35.7316 26.0022C35.7316 20.6962 31.4225 16.3943 26.1063 16.3943ZM26.1063 19.7658C29.557 19.7658 32.3547 22.5578 32.3547 26.0022C32.3547 29.4463 29.557 32.2387 26.1063 32.2387C22.6552 32.2387 19.8579 29.4463 19.8579 26.0022C19.8579 22.5578 22.6552 19.7658 26.1063 19.7658Z" fill="white"/>
</g>
<defs>
<radialGradient id="paint0_radial_773_2" cx="0" cy="0" r="1" gradientUnits="userSpaceOnUse" gradientTransform="translate(14.2087 55.2356) rotate(-90) scale(50.2144 46.8061)">
<stop stop-color="#FFDD55"/>
<stop offset="0.1" stop-color="#FFDD55"/>
<stop offset="0.5" stop-color="#FF543E"/>
<stop offset="1" stop-color="#C837AB"/>
</radialGradient>
<radialGradient id="paint1_radial_773_2" cx="0" cy="0" r="1" gradientUnits="userSpaceOnUse" gradientTransform="translate(-7.78493 4.31741) rotate(78.6593) scale(22.4536 92.7202)">
<stop stop-color="#3771C8"/>
<stop offset="0.128" stop-color="#3771C8"/>
<stop offset="1" stop-color="#6600FF" stop-opacity="0"/>
</radialGradient>
</defs>
</svg>
