<svg id="jf" width="42" height="42" viewBox="0 0 42 42" fill="none" xmlns="http://www.w3.org/2000/svg">
<rect width="42" height="42" rx="6" fill="url(#paint0_linear_1110_2)"/>
<g filter="url(#filter0_d_1110_2)">
<path d="M15.592 10.476C16.32 10.476 16.852 10.5413 17.188 10.672C17.5427 10.784 17.7947 10.98 17.944 11.26C18.1493 11.6893 18.252 12.268 18.252 12.996V23.832C18.252 25.792 17.5427 27.528 16.124 29.04C14.7053 30.5333 12.8947 31.28 10.692 31.28C9.46 31.28 8.368 31.0093 7.416 30.468C6.55733 30.0013 5.96 29.5813 5.624 29.208L5.4 28.984C4.74667 28.2933 4.42 27.7053 4.42 27.22C4.42 26.716 4.74667 26.128 5.4 25.456C6.05333 24.784 6.632 24.448 7.136 24.448C7.64 24.448 8.2 24.756 8.816 25.372C9.432 25.988 10.0947 26.296 10.804 26.296C11.532 26.296 12.1293 26.0533 12.596 25.568C13.0627 25.0827 13.296 24.4387 13.296 23.636V13.164C13.296 12.044 13.4827 11.3253 13.856 11.008C14.2853 10.6533 14.864 10.476 15.592 10.476ZM34.0672 10.476C34.4965 10.476 34.8139 10.4947 35.0192 10.532C35.2432 10.5507 35.4859 10.6347 35.7472 10.784C36.0272 10.9333 36.2232 11.1853 36.3352 11.54C36.4472 11.8947 36.5032 12.3707 36.5032 12.968C36.5032 13.5653 36.4472 14.0413 36.3352 14.396C36.2232 14.7507 36.0272 15.0027 35.7472 15.152C35.4672 15.2827 35.2152 15.3667 34.9912 15.404C34.7859 15.4227 34.4592 15.432 34.0112 15.432H25.4432V18.26H30.9592C31.4072 18.26 31.7339 18.2787 31.9392 18.316C32.1632 18.3347 32.4152 18.4187 32.6952 18.568C33.1805 18.848 33.4232 19.5853 33.4232 20.78C33.4232 22.0867 33.0685 22.8613 32.3592 23.104C32.0605 23.1973 31.5845 23.244 30.9312 23.244H25.4432V28.536C25.4432 28.984 25.4245 29.3107 25.3872 29.516C25.3685 29.7213 25.2845 29.964 25.1352 30.244C24.8739 30.748 24.1459 31 22.9512 31C21.6445 31 20.8792 30.6453 20.6552 29.936C20.5432 29.6373 20.4872 29.1613 20.4872 28.508V12.94C20.4872 11.988 20.6645 11.344 21.0192 11.008C21.3739 10.6533 22.0459 10.476 23.0352 10.476H34.0672Z" fill="#F17C70"/>
</g>
<defs>
<filter id="filter0_d_1110_2" x="0.419983" y="6.47601" width="40.0832" height="28.804" filterUnits="userSpaceOnUse" color-interpolation-filters="sRGB">
<feFlood flood-opacity="0" result="BackgroundImageFix"/>
<feColorMatrix in="SourceAlpha" type="matrix" values="0 0 0 0 0 0 0 0 0 0 0 0 0 0 0 0 0 0 127 0" result="hardAlpha"/>
<feOffset/>
<feGaussianBlur stdDeviation="2"/>
<feComposite in2="hardAlpha" operator="out"/>
<feColorMatrix type="matrix" values="0 0 0 0 1 0 0 0 0 1 0 0 0 0 1 0 0 0 1 0"/>
<feBlend mode="normal" in2="BackgroundImageFix" result="effect1_dropShadow_1110_2"/>
<feBlend mode="normal" in="SourceGraphic" in2="effect1_dropShadow_1110_2" result="shape"/>
</filter>
<linearGradient id="paint0_linear_1110_2" x1="21" y1="0" x2="21" y2="42" gradientUnits="userSpaceOnUse">
<stop stop-color="#FFBB0C" stop-opacity="0.5"/>
<stop offset="1" stop-color="#F17C70" stop-opacity="0.5"/>
</linearGradient>
</defs>
</svg>
